<?xml version="1.0" encoding="UTF-8" standalone="no"?>
<!DOCTYPE svg PUBLIC "-//W3C//DTD SVG 20010904//EN"
              "http://www.w3.org/TR/2001/REC-SVG-20010904/DTD/svg10.dtd">

<svg xmlns="http://www.w3.org/2000/svg"
     width="0.222222in" height="0.222222in"
     viewBox="0 0 16 16">
  <path id="Selection"
        fill="black" stroke="none" stroke-width="1"
        d="M 6.16,1.20
           C 5.98,1.02 5.79,0.85 5.80,0.59
             5.80,0.49 5.84,0.36 5.94,0.33
             5.98,0.32 6.16,0.36 6.22,0.37
             6.44,0.42 6.69,0.49 6.91,0.47
             7.02,0.90 6.77,1.09 6.38,1.20
             6.53,1.42 6.89,1.70 6.60,1.96
             6.56,2.00 6.51,2.03 6.47,2.05
             6.47,2.05 6.22,2.15 6.22,2.15
             6.28,2.21 6.33,2.27 6.39,2.34
             6.42,2.38 6.45,2.43 6.47,2.48
             6.63,2.82 6.20,2.86 5.94,3.04
             6.08,3.11 6.25,3.21 6.30,3.37
             6.04,3.34 5.96,3.14 5.80,3.10
             5.67,3.07 5.62,3.19 5.41,3.15
             5.41,3.15 5.41,3.09 5.41,3.09
             5.41,3.09 5.69,2.98 5.69,2.98
             5.60,2.90 5.49,2.81 5.44,2.70
             5.29,2.37 5.72,2.19 5.97,2.12
             5.88,2.03 5.69,1.86 5.65,1.76
             5.53,1.43 5.91,1.26 6.16,1.20 Z
           M 6.83,0.75
           C 6.83,0.75 6.80,0.58 6.80,0.58
             6.80,0.58 6.55,0.50 6.55,0.50
             6.55,0.50 6.00,0.43 6.00,0.43
             6.00,0.43 5.91,0.56 5.91,0.56
             5.91,0.56 6.83,0.75 6.83,0.75 Z
           M 5.94,0.61
           C 5.88,0.79 6.03,0.81 6.16,0.84
             6.26,0.86 6.61,0.93 6.69,0.90
             6.75,0.88 6.76,0.85 6.80,0.81
             6.80,0.81 5.94,0.61 5.94,0.61 Z
           M 11.51,1.11
           C 11.46,1.06 11.42,1.01 11.38,0.95
             11.33,0.86 11.29,0.67 11.43,0.64
             11.49,0.62 11.62,0.66 11.68,0.68
             11.74,0.69 11.87,0.71 11.91,0.75
             12.01,0.84 11.92,0.98 11.85,1.04
             11.79,1.09 11.72,1.11 11.65,1.14
             11.87,1.38 11.90,1.56 11.54,1.64
             11.58,1.69 11.63,1.73 11.66,1.78
             11.79,1.99 11.56,2.07 11.40,2.12
             11.40,2.12 11.60,2.31 11.60,2.31
             11.60,2.31 11.31,2.19 11.31,2.19
             11.31,2.19 11.09,2.20 11.09,2.20
             11.09,2.20 11.23,2.12 11.23,2.12
             11.20,2.07 11.13,1.98 11.12,1.92
             11.06,1.74 11.27,1.67 11.40,1.62
             11.16,1.37 11.18,1.23 11.51,1.11 Z
           M 11.90,0.86
           C 11.82,0.73 11.53,0.66 11.40,0.75
             11.40,0.75 11.90,0.86 11.90,0.86 Z
           M 11.43,0.81
           C 11.43,0.94 11.74,0.96 11.85,0.95
             11.85,0.95 11.43,0.81 11.43,0.81 Z
           M 6.08,0.86
           C 6.08,1.06 6.40,1.11 6.58,0.98
             6.58,0.98 6.08,0.86 6.08,0.86 Z
           M 11.51,0.95
           C 11.51,0.95 11.48,0.95 11.48,0.95
             11.48,0.95 11.51,0.98 11.51,0.98
             11.51,0.98 11.51,0.95 11.51,0.95 Z
           M 11.74,1.00
           C 11.74,1.00 11.51,1.00 11.51,1.00
             11.51,1.00 11.74,1.00 11.74,1.00 Z
           M 8.95,0.98
           C 8.95,1.07 8.83,1.11 8.75,1.14
             8.81,1.20 8.96,1.30 8.99,1.37
             9.03,1.49 8.87,1.64 8.81,1.73
             9.16,1.91 8.96,2.10 8.75,2.29
             8.82,2.31 8.86,2.33 8.91,2.38
             8.94,2.41 8.96,2.44 8.98,2.48
             9.09,2.74 8.87,2.75 8.70,2.76
             8.59,2.77 8.44,2.83 8.42,2.67
             8.42,2.63 8.42,2.58 8.44,2.54
             8.46,2.49 8.48,2.46 8.51,2.43
             8.51,2.43 8.67,2.26 8.67,2.26
             8.63,2.24 8.59,2.22 8.56,2.19
             8.32,1.99 8.53,1.84 8.70,1.70
             8.44,1.57 8.32,1.35 8.64,1.20
             8.64,1.20 8.64,1.14 8.64,1.14
             8.64,1.14 8.50,1.06 8.50,1.06
             8.75,1.11 8.68,1.14 8.95,0.98 Z
           M 11.71,1.31
           C 11.59,1.25 11.49,1.20 11.37,1.28
             11.37,1.28 11.71,1.31 11.71,1.31 Z
           M 6.33,1.37
           C 6.25,1.29 6.23,1.28 6.13,1.34
             6.13,1.34 6.33,1.37 6.33,1.37 Z
           M 8.89,1.31
           C 8.75,1.27 8.62,1.25 8.50,1.37
             8.50,1.37 8.89,1.31 8.89,1.31 Z
           M 11.76,1.45
           C 11.65,1.37 11.43,1.33 11.29,1.31
             11.37,1.43 11.63,1.46 11.76,1.45 Z
           M 8.98,1.39
           C 8.85,1.37 8.59,1.38 8.47,1.45
             8.61,1.49 8.85,1.46 8.98,1.39 Z
           M 6.55,1.62
           C 6.52,1.56 6.49,1.51 6.43,1.47
             6.34,1.41 6.04,1.37 5.94,1.41
             5.89,1.43 5.89,1.45 5.85,1.48
             5.85,1.48 6.55,1.62 6.55,1.62 Z
           M 11.68,1.51
           C 11.68,1.51 11.34,1.48 11.34,1.48
             11.46,1.53 11.56,1.55 11.68,1.51 Z
           M 8.95,1.48
           C 8.82,1.49 8.66,1.49 8.56,1.56
             8.70,1.60 8.84,1.58 8.95,1.48 Z
           M 6.61,1.70
           C 6.61,1.70 5.74,1.53 5.74,1.53
             5.74,1.53 5.79,1.67 5.79,1.67
             5.79,1.67 6.02,1.74 6.02,1.74
             6.02,1.74 6.58,1.84 6.58,1.84
             6.58,1.84 6.61,1.70 6.61,1.70 Z
           M 8.81,1.62
           C 8.81,1.62 8.67,1.64 8.67,1.64
             8.67,1.64 8.81,1.62 8.81,1.62 Z
           M 11.48,1.67
           C 11.48,1.67 11.46,1.67 11.46,1.67
             11.46,1.67 11.48,1.70 11.48,1.70
             11.48,1.70 11.48,1.67 11.48,1.67 Z
           M 3.07,1.67
           C 3.07,1.67 3.32,1.82 3.32,1.82
             3.32,1.82 3.71,1.73 3.71,1.73
             3.63,1.85 3.50,1.88 3.37,1.92
             3.58,2.13 3.88,2.36 3.54,2.62
             3.48,2.67 3.44,2.68 3.37,2.70
             3.60,2.93 3.80,3.15 3.48,3.42
             3.42,3.47 3.36,3.50 3.29,3.54
             3.36,3.62 3.44,3.70 3.50,3.79
             3.53,3.84 3.56,3.90 3.57,3.96
             3.60,4.04 3.60,4.21 3.52,4.26
             3.46,4.31 3.26,4.26 3.18,4.26
             3.11,4.24 2.88,4.22 2.83,4.18
             2.76,4.12 2.78,3.92 2.83,3.85
             2.85,3.80 2.89,3.75 2.93,3.71
             3.00,3.64 3.05,3.61 3.15,3.57
             3.04,3.35 2.74,3.16 2.96,2.90
             2.99,2.87 3.03,2.84 3.07,2.81
             3.13,2.77 3.16,2.75 3.23,2.73
             3.08,2.52 2.74,2.25 3.07,2.00
             3.13,1.96 3.17,1.94 3.23,1.92
             3.23,1.92 3.07,1.67 3.07,1.67 Z
           M 11.60,1.81
           C 11.60,1.81 11.29,1.73 11.29,1.73
             11.36,1.82 11.49,1.84 11.60,1.81 Z
           M 6.47,1.87
           C 6.47,1.87 5.80,1.76 5.80,1.76
             5.83,1.80 5.84,1.84 5.89,1.87
             5.96,1.93 6.29,1.99 6.38,1.95
             6.43,1.93 6.44,1.91 6.47,1.87 Z
           M 8.92,1.84
           C 8.78,1.80 8.67,1.79 8.56,1.90
             8.69,1.90 8.80,1.92 8.92,1.84 Z
           M 11.62,1.92
           C 11.62,1.92 11.18,1.81 11.18,1.81
             11.25,1.92 11.50,1.97 11.62,1.92 Z
           M 8.56,1.90
           C 8.56,1.90 8.53,1.90 8.53,1.90
             8.53,1.90 8.56,1.92 8.56,1.92
             8.56,1.92 8.56,1.90 8.56,1.90 Z
           M 8.98,1.92
           C 8.98,1.92 8.54,1.97 8.54,1.97
             8.54,1.97 8.47,2.03 8.47,2.03
             8.61,2.03 8.89,2.04 8.98,1.92 Z
           M 10.26,2.70
           C 10.21,2.59 10.17,2.48 10.14,2.37
             10.09,2.16 10.19,1.91 10.37,1.92
             10.44,1.92 10.73,2.14 10.82,2.19
             10.88,2.23 11.08,2.33 11.10,2.40
             11.15,2.52 11.04,2.65 10.95,2.71
             10.81,2.81 10.60,2.77 10.43,2.82
             10.52,3.01 10.68,3.36 10.40,3.48
             10.30,3.52 10.09,3.51 9.98,3.51
             9.98,3.51 10.06,3.71 10.06,3.71
             10.07,3.75 10.08,3.80 10.09,3.85
             10.12,4.20 9.71,4.13 9.48,4.13
             9.48,4.13 9.67,4.52 9.67,4.52
             9.67,4.52 9.56,4.54 9.56,4.54
             9.51,4.44 9.38,4.18 9.28,4.14
             9.28,4.14 8.98,4.10 8.98,4.10
             8.98,4.10 8.98,4.04 8.98,4.04
             8.98,4.04 9.25,4.01 9.25,4.01
             9.22,3.93 9.18,3.85 9.16,3.76
             9.08,3.37 9.53,3.40 9.78,3.40
             9.74,3.30 9.66,3.12 9.65,3.01
             9.63,2.67 10.03,2.70 10.26,2.70 Z
           M 11.23,1.92
           C 11.23,2.04 11.41,2.01 11.48,1.98
             11.48,1.98 11.23,1.92 11.23,1.92 Z
           M 6.05,1.98
           C 6.08,2.06 6.12,2.04 6.19,2.01
             6.19,2.01 6.05,1.98 6.05,1.98 Z
           M 3.34,2.01
           C 3.34,2.01 3.32,2.01 3.32,2.01
             3.32,2.01 3.34,2.03 3.34,2.03
             3.34,2.03 3.34,2.01 3.34,2.01 Z
           M 10.98,2.54
           C 11.02,2.32 10.81,2.26 10.65,2.15
             10.59,2.12 10.49,2.04 10.43,2.03
             10.37,2.02 10.34,2.04 10.29,2.06
             10.29,2.06 10.29,2.12 10.29,2.12
             10.50,2.24 10.76,2.48 10.98,2.54 Z
           M 8.92,2.03
           C 8.92,2.03 8.53,2.12 8.53,2.12
             8.67,2.17 8.83,2.18 8.92,2.03 Z
           M 3.51,2.20
           C 3.39,2.06 3.18,2.00 3.04,2.15
             3.04,2.15 3.51,2.20 3.51,2.20 Z
           M 7.14,2.03
           C 7.14,2.03 7.14,2.31 7.14,2.31
             7.25,2.28 7.47,2.21 7.57,2.31
             7.68,2.40 7.63,2.74 7.61,2.87
             7.73,2.83 7.93,2.76 8.05,2.81
             8.25,2.89 8.21,3.21 8.17,3.37
             8.37,3.35 8.74,3.22 8.85,3.49
             8.86,3.53 8.86,3.55 8.85,3.60
             8.83,3.66 8.54,3.97 8.48,4.04
             8.43,4.09 8.38,4.15 8.30,4.14
             8.00,4.11 8.08,3.68 8.08,3.48
             7.89,3.51 7.54,3.64 7.48,3.34
             7.47,3.30 7.48,3.25 7.48,3.21
             7.48,3.21 7.53,2.98 7.53,2.98
             7.42,3.00 7.23,3.05 7.14,3.02
             6.90,2.96 7.00,2.59 7.05,2.43
             6.92,2.47 6.78,2.55 6.63,2.54
             6.63,2.54 7.03,2.31 7.03,2.31
             7.03,2.31 7.14,2.03 7.14,2.03 Z
           M 4.71,2.09
           C 4.71,2.09 4.88,2.21 4.88,2.21
             4.88,2.21 5.13,2.21 5.13,2.21
             5.13,2.21 5.13,2.26 5.13,2.26
             5.13,2.26 4.85,2.26 4.85,2.26
             5.01,2.54 5.02,2.67 4.66,2.70
             4.83,3.02 4.70,3.12 4.38,3.15
             4.41,3.20 4.44,3.26 4.45,3.32
             4.46,3.35 4.47,3.39 4.47,3.43
             4.45,3.67 4.27,3.60 4.13,3.53
             3.98,3.47 3.81,3.38 4.02,3.23
             4.05,3.20 4.09,3.19 4.13,3.17
             4.13,3.17 4.32,3.12 4.32,3.12
             4.13,2.80 4.28,2.73 4.57,2.68
             4.43,2.42 4.46,2.27 4.77,2.23
             4.77,2.23 4.71,2.09 4.71,2.09 Z
           M 10.90,2.62
           C 10.78,2.48 10.41,2.22 10.23,2.17
             10.23,2.22 10.23,2.26 10.26,2.30
             10.30,2.38 10.67,2.61 10.76,2.62
             10.82,2.64 10.84,2.63 10.90,2.62 Z
           M 3.62,2.40
           C 3.61,2.35 3.61,2.32 3.56,2.29
             3.46,2.22 3.10,2.20 2.98,2.23
             2.98,2.23 3.05,2.31 3.05,2.31
             3.05,2.31 3.62,2.40 3.62,2.40 Z
           M 6.16,2.29
           C 6.07,2.20 6.04,2.20 5.94,2.26
             5.94,2.26 6.16,2.29 6.16,2.29 Z
           M 4.79,2.26
           C 4.79,2.26 4.77,2.26 4.77,2.26
             4.77,2.26 4.79,2.29 4.79,2.29
             4.79,2.29 4.79,2.26 4.79,2.26 Z
           M 4.91,2.45
           C 4.81,2.35 4.74,2.30 4.60,2.31
             4.60,2.31 4.91,2.45 4.91,2.45 Z
           M 4.82,2.29
           C 4.82,2.29 4.79,2.29 4.79,2.29
             4.79,2.29 4.82,2.31 4.82,2.31
             4.82,2.31 4.82,2.29 4.82,2.29 Z
           M 6.36,2.54
           C 6.33,2.49 6.33,2.46 6.28,2.42
             6.22,2.36 5.88,2.29 5.80,2.31
             5.73,2.32 5.70,2.35 5.66,2.40
             5.66,2.40 6.36,2.54 6.36,2.54 Z
           M 6.19,2.29
           C 6.19,2.29 6.16,2.29 6.16,2.29
             6.16,2.29 6.19,2.31 6.19,2.31
             6.19,2.31 6.19,2.29 6.19,2.29 Z
           M 7.41,2.31
           C 7.22,2.35 7.10,2.55 7.05,2.73
             7.17,2.64 7.35,2.45 7.41,2.31 Z
           M 8.72,2.31
           C 8.72,2.31 8.70,2.31 8.70,2.31
             8.70,2.31 8.72,2.34 8.72,2.34
             8.72,2.34 8.72,2.31 8.72,2.31 Z
           M 7.55,2.34
           C 7.38,2.42 7.08,2.73 7.05,2.93
             7.22,2.85 7.54,2.54 7.55,2.34 Z
           M 4.93,2.56
           C 4.86,2.46 4.64,2.36 4.52,2.40
             4.52,2.40 4.93,2.56 4.93,2.56 Z
           M 7.19,2.37
           C 7.19,2.37 7.14,2.37 7.14,2.37
             7.14,2.37 7.11,2.45 7.11,2.45
             7.11,2.45 7.19,2.37 7.19,2.37 Z
           M 8.86,2.40
           C 8.73,2.36 8.66,2.36 8.56,2.45
             8.56,2.45 8.86,2.40 8.86,2.40 Z
           M 3.60,2.45
           C 3.60,2.45 3.07,2.40 3.07,2.40
             3.18,2.56 3.45,2.59 3.60,2.45 Z
           M 10.31,2.43
           C 10.27,2.61 10.53,2.70 10.68,2.65
             10.68,2.65 10.31,2.43 10.31,2.43 Z
           M 6.41,2.62
           C 6.41,2.62 5.77,2.47 5.77,2.47
             5.63,2.44 5.55,2.43 5.52,2.59
             5.52,2.59 6.05,2.69 6.05,2.69
             6.05,2.69 6.30,2.71 6.30,2.71
             6.30,2.71 6.41,2.62 6.41,2.62 Z
           M 4.57,2.48
           C 4.57,2.61 4.78,2.64 4.88,2.59
             4.88,2.59 4.57,2.48 4.57,2.48 Z
           M 8.95,2.48
           C 8.79,2.48 8.57,2.44 8.47,2.59
             8.47,2.59 8.95,2.54 8.95,2.54
             8.95,2.54 8.95,2.48 8.95,2.48 Z
           M 7.58,2.51
           C 7.45,2.63 7.27,2.80 7.19,2.95
             7.41,2.94 7.57,2.71 7.58,2.51 Z
           M 3.43,2.59
           C 3.43,2.59 3.23,2.59 3.23,2.59
             3.32,2.66 3.34,2.66 3.43,2.59 Z
           M 8.98,2.59
           C 8.98,2.59 8.45,2.62 8.45,2.62
             8.46,2.66 8.46,2.69 8.51,2.71
             8.56,2.74 8.89,2.71 8.93,2.68
             8.96,2.65 8.96,2.63 8.98,2.59 Z
           M 14.27,3.01
           C 14.49,2.74 14.60,2.43 15.02,2.62
             14.98,2.85 15.04,3.28 15.08,3.51
             14.69,3.72 14.56,3.49 14.30,3.23
             14.16,3.54 13.91,3.83 13.62,3.48
             13.56,3.42 13.53,3.36 13.49,3.29
             13.37,3.49 13.17,3.87 12.88,3.69
             12.81,3.64 12.71,3.52 12.66,3.46
             12.62,3.58 12.60,3.62 12.49,3.68
             12.49,3.68 12.46,3.65 12.46,3.65
             12.49,3.55 12.58,3.40 12.57,3.32
             12.54,3.14 12.36,3.07 12.40,2.84
             12.40,2.84 12.68,3.21 12.68,3.21
             12.75,3.05 12.90,2.71 13.10,2.75
             13.25,2.78 13.37,2.95 13.49,3.04
             13.51,2.97 13.53,2.91 13.57,2.84
             13.80,2.49 14.13,2.71 14.27,3.01 Z
           M 6.19,2.76
           C 6.19,2.76 5.55,2.65 5.55,2.65
             5.58,2.70 5.59,2.73 5.64,2.76
             5.78,2.86 6.05,2.86 6.19,2.76 Z
           M 14.72,2.68
           C 14.55,2.82 14.61,3.01 14.63,3.21
             14.64,3.27 14.63,3.36 14.66,3.41
             14.69,3.45 14.73,3.46 14.77,3.48
             14.77,3.48 14.72,2.68 14.72,2.68 Z
           M 14.83,3.48
           C 14.88,3.47 14.94,3.47 14.97,3.42
             14.99,3.37 14.97,3.26 14.97,3.21
             14.97,3.11 14.96,2.76 14.90,2.70
             14.86,2.68 14.81,2.68 14.77,2.68
             14.77,2.68 14.83,3.48 14.83,3.48 Z
           M 4.68,2.90
           C 4.61,2.78 4.51,2.71 4.38,2.79
             4.38,2.79 4.68,2.90 4.68,2.90 Z
           M 3.37,2.84
           C 3.31,2.79 3.31,2.78 3.23,2.82
             3.23,2.82 3.37,2.84 3.37,2.84 Z
           M 13.83,2.79
           C 13.83,2.79 13.81,2.79 13.79,2.82
             13.77,2.87 13.82,3.29 13.83,3.37
             13.83,3.41 13.84,3.56 13.92,3.51
             13.98,3.47 13.95,3.37 13.95,3.32
             13.94,3.23 13.92,2.85 13.88,2.81
             13.86,2.78 13.83,2.79 13.83,2.79 Z
           M 4.71,2.98
           C 4.60,2.90 4.41,2.81 4.26,2.82
             4.38,2.93 4.55,3.00 4.71,2.98 Z
           M 7.55,2.79
           C 7.55,2.79 7.41,2.93 7.41,2.93
             7.41,2.93 7.55,2.90 7.55,2.90
             7.55,2.90 7.55,2.79 7.55,2.79 Z
           M 11.71,2.76
           C 11.73,2.87 11.65,2.93 11.60,3.01
             11.66,3.02 11.71,3.03 11.76,3.05
             12.18,3.22 11.86,3.54 11.71,3.76
             11.77,3.77 11.84,3.78 11.90,3.81
             12.33,3.96 12.11,4.26 11.90,4.49
             11.90,4.49 12.18,4.61 12.18,4.61
             12.24,4.64 12.29,4.67 12.34,4.72
             12.40,4.79 12.44,4.97 12.36,5.05
             12.32,5.08 12.15,5.11 12.10,5.13
             12.02,5.15 11.72,5.24 11.65,5.23
             11.43,5.20 11.49,4.89 11.57,4.77
             11.63,4.68 11.69,4.60 11.76,4.52
             11.57,4.47 11.21,4.33 11.31,4.07
             11.34,3.98 11.48,3.85 11.54,3.76
             11.48,3.75 11.43,3.74 11.37,3.72
             11.33,3.70 11.27,3.67 11.24,3.64
             10.99,3.44 11.28,3.19 11.43,3.04
             11.30,3.01 11.12,3.01 11.04,2.90
             11.04,2.90 11.48,2.94 11.48,2.94
             11.48,2.94 11.71,2.76 11.71,2.76 Z
           M 10.43,3.18
           C 10.40,2.92 10.15,2.82 9.92,2.82
             10.04,2.96 10.26,3.10 10.43,3.18 Z
           M 13.99,2.82
           C 13.95,2.93 14.00,3.34 14.05,3.46
             14.14,3.24 14.14,3.00 13.99,2.82 Z
           M 7.94,2.84
           C 7.94,2.84 7.92,2.84 7.92,2.84
             7.92,2.84 7.94,2.87 7.94,2.87
             7.94,2.87 7.94,2.84 7.94,2.84 Z
           M 13.07,2.84
           C 13.07,2.84 12.98,2.96 12.98,2.96
             12.98,2.96 12.98,3.21 12.98,3.21
             12.98,3.21 13.02,3.62 13.02,3.62
             13.14,3.58 13.13,3.52 13.13,3.40
             13.13,3.40 13.07,2.84 13.07,2.84 Z
           M 14.55,2.84
           C 14.44,2.98 14.41,3.22 14.58,3.32
             14.58,3.32 14.55,2.84 14.55,2.84 Z
           M 3.54,3.01
           C 3.41,2.87 3.17,2.83 3.01,2.95
             3.01,2.95 3.54,3.01 3.54,3.01 Z
           M 7.92,2.87
           C 7.73,2.90 7.57,3.10 7.55,3.29
             7.67,3.20 7.85,3.01 7.92,2.87 Z
           M 8.08,2.87
           C 7.91,2.95 7.67,3.24 7.55,3.40
             7.55,3.40 7.61,3.46 7.61,3.46
             7.61,3.46 7.64,3.46 7.64,3.46
             7.79,3.30 8.02,3.09 8.11,2.90
             8.11,2.90 8.08,2.87 8.08,2.87 Z
           M 10.40,3.37
           C 10.40,3.33 10.41,3.31 10.40,3.27
             10.37,3.21 10.28,3.15 10.23,3.12
             10.09,3.02 9.95,2.91 9.78,2.87
             9.78,2.87 9.76,2.98 9.76,2.98
             9.76,2.98 10.40,3.37 10.40,3.37 Z
           M 10.34,2.87
           C 10.34,2.87 10.31,2.87 10.31,2.87
             10.31,2.87 10.34,2.90 10.34,2.90
             10.34,2.90 10.34,2.87 10.34,2.87 Z
           M 13.71,2.87
           C 13.57,3.02 13.62,3.33 13.77,3.46
             13.77,3.46 13.71,2.87 13.71,2.87 Z
           M 4.29,2.90
           C 4.29,2.90 4.26,2.90 4.26,2.90
             4.26,2.90 4.29,2.93 4.29,2.93
             4.29,2.93 4.29,2.90 4.29,2.90 Z
           M 13.16,2.90
           C 13.16,2.90 13.18,3.51 13.18,3.51
             13.23,3.47 13.25,3.46 13.28,3.40
             13.30,3.33 13.28,3.05 13.24,2.99
             13.21,2.94 13.19,2.93 13.16,2.90 Z
           M 4.63,3.04
           C 4.63,3.04 4.29,2.93 4.29,2.93
             4.35,3.06 4.50,3.11 4.63,3.04 Z
           M 7.67,2.93
           C 7.67,2.93 7.61,2.93 7.61,2.93
             7.61,2.93 7.58,3.04 7.58,3.04
             7.58,3.04 7.67,2.93 7.67,2.93 Z
           M 3.60,3.09
           C 3.60,3.09 2.95,3.01 2.95,3.01
             2.95,3.01 2.95,3.15 2.95,3.15
             2.95,3.15 3.53,3.19 3.53,3.19
             3.53,3.19 3.60,3.09 3.60,3.09 Z
           M 8.14,3.01
           C 8.01,3.12 7.79,3.34 7.72,3.48
             7.95,3.44 8.13,3.25 8.14,3.01 Z
           M 14.19,3.04
           C 14.19,3.04 14.16,3.18 14.16,3.18
             14.16,3.18 14.22,3.18 14.22,3.18
             14.22,3.18 14.19,3.04 14.19,3.04 Z
           M 9.81,3.07
           C 9.78,3.26 10.12,3.44 10.29,3.37
             10.29,3.37 9.81,3.07 9.81,3.07 Z
           M 11.60,3.07
           C 11.60,3.07 11.48,3.12 11.48,3.12
             11.48,3.12 11.60,3.07 11.60,3.07 Z
           M 12.91,3.07
           C 12.78,3.21 12.80,3.44 12.93,3.57
             12.93,3.57 12.91,3.07 12.91,3.07 Z
           M 13.35,3.09
           C 13.35,3.09 13.38,3.26 13.38,3.26
             13.38,3.26 13.35,3.09 13.35,3.09 Z
           M 14.41,3.09
           C 14.41,3.09 14.38,3.09 14.38,3.09
             14.38,3.09 14.41,3.12 14.41,3.12
             14.41,3.12 14.41,3.09 14.41,3.09 Z
           M 11.82,3.18
           C 11.67,3.08 11.40,3.16 11.32,3.32
             11.32,3.32 11.82,3.18 11.82,3.18 Z
           M 4.40,3.32
           C 4.33,3.23 4.27,3.18 4.15,3.23
             4.15,3.23 4.40,3.32 4.40,3.32 Z
           M 3.54,3.26
           C 3.54,3.26 2.98,3.21 2.98,3.21
             3.12,3.39 3.37,3.43 3.54,3.26 Z
           M 4.43,3.46
           C 4.38,3.32 4.15,3.24 4.01,3.26
             4.01,3.26 4.43,3.46 4.43,3.46 Z
           M 11.90,3.23
           C 11.79,3.24 11.35,3.34 11.27,3.40
             11.22,3.43 11.22,3.46 11.21,3.51
             11.21,3.51 11.65,3.41 11.65,3.41
             11.65,3.41 11.86,3.35 11.86,3.35
             11.86,3.35 11.90,3.23 11.90,3.23 Z
           M 8.11,3.29
           C 8.11,3.29 8.00,3.43 8.00,3.43
             8.09,3.39 8.09,3.39 8.11,3.29 Z
           M 4.40,3.48
           C 4.40,3.48 3.96,3.32 3.96,3.32
             4.01,3.48 4.24,3.57 4.40,3.54
             4.40,3.54 4.40,3.48 4.40,3.48 Z
           M 12.77,3.32
           C 12.77,3.32 12.74,3.32 12.74,3.32
             12.74,3.32 12.77,3.34 12.77,3.34
             12.77,3.34 12.77,3.32 12.77,3.32 Z
           M 5.44,3.32
           C 5.44,3.32 5.54,3.58 5.54,3.58
             5.54,3.58 5.85,3.82 5.85,3.82
             5.85,3.82 5.52,3.68 5.52,3.68
             5.53,3.89 5.64,4.24 5.30,4.20
             5.22,4.20 5.15,4.17 5.07,4.15
             5.07,4.25 5.09,4.46 5.04,4.54
             4.94,4.70 4.65,4.60 4.52,4.54
             4.52,4.72 4.57,4.99 4.38,5.10
             4.19,5.19 4.02,4.86 3.92,4.74
             3.88,4.68 3.81,4.62 3.83,4.54
             3.87,4.29 4.27,4.40 4.43,4.43
             4.43,4.21 4.39,3.88 4.74,3.94
             4.74,3.94 4.96,4.01 4.96,4.01
             4.96,3.79 4.91,3.42 5.27,3.51
             5.33,3.52 5.38,3.54 5.44,3.57
             5.44,3.57 5.44,3.32 5.44,3.32 Z
           M 9.92,3.34
           C 9.92,3.34 9.90,3.37 9.90,3.37
             9.90,3.37 10.01,3.37 10.01,3.37
             10.01,3.37 9.92,3.34 9.92,3.34 Z
           M 8.70,3.40
           C 8.64,3.39 8.61,3.38 8.56,3.40
             8.47,3.44 8.20,3.76 8.17,3.85
             8.15,3.90 8.16,3.91 8.17,3.96
             8.17,3.96 8.70,3.40 8.70,3.40 Z
           M 3.32,3.43
           C 3.32,3.43 3.15,3.40 3.15,3.40
             3.22,3.47 3.23,3.48 3.32,3.43 Z
           M 8.45,3.40
           C 8.26,3.43 8.17,3.56 8.14,3.74
             8.14,3.74 8.45,3.40 8.45,3.40 Z
           M 8.22,3.43
           C 8.22,3.43 8.20,3.43 8.20,3.43
             8.20,3.43 8.22,3.46 8.22,3.46
             8.22,3.46 8.22,3.43 8.22,3.43 Z
           M 11.85,3.43
           C 11.85,3.43 11.26,3.54 11.26,3.54
             11.29,3.57 11.30,3.59 11.35,3.61
             11.43,3.64 11.71,3.58 11.78,3.52
             11.82,3.49 11.82,3.47 11.85,3.43 Z
           M 8.20,3.46
           C 8.20,3.46 8.17,3.46 8.17,3.46
             8.17,3.46 8.20,3.48 8.20,3.48
             8.20,3.48 8.20,3.46 8.20,3.46 Z
           M 8.75,3.46
           C 8.61,3.56 8.30,3.88 8.22,4.04
             8.43,4.08 8.52,3.90 8.64,3.76
             8.69,3.71 8.76,3.64 8.78,3.57
             8.79,3.51 8.77,3.50 8.75,3.46 Z
           M 9.98,3.87
           C 9.92,3.66 9.67,3.45 9.45,3.54
             9.45,3.54 9.98,3.87 9.98,3.87 Z
           M 9.90,3.60
           C 9.85,3.53 9.84,3.51 9.76,3.54
             9.76,3.54 9.90,3.60 9.90,3.60 Z
           M 15.58,3.48
           C 15.58,3.48 15.68,3.69 15.68,3.69
             15.68,3.69 15.97,3.87 15.97,3.87
             15.97,3.87 15.67,3.76 15.67,3.76
             15.70,3.99 15.80,4.26 15.44,4.21
             15.44,4.21 15.30,4.18 15.30,4.18
             15.30,4.18 15.33,4.35 15.33,4.35
             15.35,4.69 15.08,4.59 14.86,4.57
             14.88,4.65 14.88,4.68 14.88,4.77
             14.88,4.81 14.88,4.87 14.88,4.91
             14.86,4.95 14.84,4.99 14.80,5.02
             14.65,5.12 14.54,4.94 14.46,4.85
             14.39,4.77 14.26,4.67 14.33,4.55
             14.36,4.50 14.41,4.48 14.47,4.46
             14.47,4.46 14.61,4.46 14.61,4.46
             14.61,4.46 14.80,4.49 14.80,4.49
             14.80,4.34 14.75,4.07 14.97,4.05
             14.97,4.05 15.25,4.10 15.25,4.10
             15.22,3.99 15.18,3.73 15.31,3.67
             15.38,3.64 15.53,3.67 15.61,3.67
             15.61,3.67 15.58,3.48 15.58,3.48 Z
           M 9.98,3.99
           C 9.89,3.88 9.52,3.60 9.39,3.57
             9.34,3.56 9.33,3.56 9.28,3.57
             9.28,3.57 9.33,3.66 9.33,3.66
             9.33,3.66 9.84,3.99 9.84,3.99
             9.84,3.99 9.98,3.99 9.98,3.99 Z
           M 5.46,3.93
           C 5.44,3.75 5.35,3.60 5.16,3.57
             5.16,3.57 5.46,3.93 5.46,3.93 Z
           M 3.23,3.60
           C 3.23,3.60 3.21,3.60 3.21,3.60
             3.21,3.60 3.23,3.62 3.23,3.62
             3.23,3.62 3.23,3.60 3.23,3.60 Z
           M 5.13,3.60
           C 5.13,3.60 5.07,3.60 5.07,3.60
             5.07,3.60 5.05,3.62 5.05,3.62
             5.11,3.77 5.32,4.05 5.46,4.13
             5.43,3.93 5.24,3.75 5.13,3.60 Z
           M 3.26,3.62
           C 3.26,3.62 3.23,3.62 3.23,3.62
             3.23,3.62 3.26,3.65 3.26,3.65
             3.26,3.65 3.26,3.62 3.26,3.62 Z
           M 5.41,3.62
           C 5.41,3.62 5.38,3.62 5.38,3.62
             5.38,3.62 5.41,3.65 5.41,3.65
             5.41,3.65 5.41,3.62 5.41,3.62 Z
           M 11.68,3.62
           C 11.68,3.62 11.48,3.68 11.48,3.68
             11.59,3.70 11.60,3.70 11.68,3.62 Z
           M 5.44,3.65
           C 5.44,3.65 5.41,3.65 5.41,3.65
             5.41,3.65 5.44,3.68 5.44,3.68
             5.44,3.68 5.44,3.65 5.44,3.65 Z
           M 3.40,3.82
           C 3.31,3.65 3.12,3.65 2.98,3.76
             2.98,3.76 3.40,3.82 3.40,3.82 Z
           M 15.64,3.99
           C 15.60,3.82 15.52,3.73 15.36,3.68
             15.36,3.68 15.64,3.99 15.64,3.99 Z
           M 9.28,3.71
           C 9.28,3.90 9.56,4.05 9.73,3.99
             9.73,3.99 9.28,3.71 9.28,3.71 Z
           M 15.30,3.71
           C 15.26,3.88 15.53,4.09 15.67,4.15
             15.62,3.98 15.44,3.81 15.30,3.71 Z
           M 5.05,3.74
           C 4.99,3.91 5.19,4.10 5.35,4.13
             5.35,4.13 5.05,3.74 5.05,3.74 Z
           M 3.51,4.01
           C 3.50,3.96 3.50,3.94 3.45,3.90
             3.39,3.86 3.00,3.81 2.94,3.83
             2.89,3.86 2.87,3.89 2.84,3.93
             2.84,3.93 3.51,4.01 3.51,4.01 Z
           M 11.71,3.82
           C 11.71,3.82 11.57,3.87 11.57,3.87
             11.57,3.87 11.71,3.82 11.71,3.82 Z
           M 15.28,3.85
           C 15.24,4.02 15.43,4.16 15.58,4.18
             15.58,4.18 15.28,3.85 15.28,3.85 Z
           M 1.95,4.68
           C 1.74,4.68 1.35,4.77 1.27,4.49
             1.26,4.45 1.26,4.42 1.27,4.38
             1.30,4.32 1.63,4.03 1.70,3.97
             1.75,3.92 1.82,3.85 1.90,3.86
             2.21,3.92 2.10,4.37 2.06,4.57
             2.18,4.57 2.35,4.53 2.45,4.55
             2.78,4.62 2.66,4.97 2.59,5.18
             2.75,5.14 3.10,5.07 3.20,5.25
             3.27,5.36 3.21,5.57 3.18,5.69
             3.18,5.69 3.43,5.63 3.43,5.63
             3.43,5.63 3.46,5.71 3.46,5.71
             3.36,5.73 3.23,5.73 3.16,5.81
             3.05,5.92 3.09,6.09 2.93,6.19
             2.93,6.19 3.07,5.77 3.07,5.77
             2.92,5.81 2.55,5.89 2.46,5.74
             2.39,5.62 2.46,5.40 2.48,5.27
             2.48,5.27 2.26,5.32 2.26,5.32
             2.21,5.32 2.16,5.32 2.12,5.32
             1.79,5.27 1.91,4.90 1.95,4.68 Z
           M 6.83,4.46
           C 6.83,4.46 6.79,4.21 6.79,4.21
             6.78,4.16 6.78,4.12 6.79,4.07
             6.80,4.03 6.82,4.00 6.84,3.96
             7.02,3.76 7.17,4.00 7.30,4.12
             7.36,4.17 7.47,4.25 7.49,4.32
             7.53,4.43 7.43,4.53 7.33,4.57
             7.29,4.57 7.23,4.57 7.19,4.57
             7.19,4.57 6.94,4.57 6.94,4.57
             6.96,4.72 7.03,5.01 6.85,5.08
             6.76,5.12 6.60,5.08 6.49,5.08
             6.49,5.08 6.53,5.24 6.53,5.24
             6.57,5.62 6.26,5.51 6.02,5.49
             6.02,5.49 6.13,5.83 6.13,5.83
             5.97,5.73 6.02,5.61 5.92,5.51
             5.85,5.44 5.77,5.47 5.66,5.38
             5.66,5.38 5.88,5.38 5.88,5.38
             5.87,5.29 5.84,5.14 5.88,5.05
             5.95,4.88 6.24,4.94 6.38,4.96
             6.33,4.79 6.25,4.51 6.49,4.46
             6.56,4.44 6.74,4.46 6.83,4.46 Z
           M 11.99,3.90
           C 11.77,3.86 11.53,3.87 11.40,4.07
             11.56,4.06 11.85,3.99 11.99,3.90 Z
           M 1.98,3.99
           C 1.93,3.96 1.90,3.93 1.84,3.94
             1.78,3.96 1.69,4.05 1.64,4.09
             1.50,4.22 1.29,4.33 1.37,4.54
             1.50,4.48 1.89,4.11 1.98,3.99 Z
           M 7.41,4.43
           C 7.43,4.25 7.29,4.17 7.16,4.06
             7.12,4.03 7.06,3.96 7.00,3.96
             6.95,3.96 6.94,3.99 6.91,4.01
             6.91,4.01 7.41,4.43 7.41,4.43 Z
           M 9.39,3.96
           C 9.39,3.96 9.37,3.96 9.37,3.96
             9.37,3.96 9.39,3.99 9.39,3.99
             9.39,3.99 9.39,3.96 9.39,3.96 Z
           M 3.51,4.07
           C 3.51,4.07 2.84,3.99 2.84,3.99
             2.84,3.99 2.89,4.13 2.89,4.13
             2.89,4.13 3.48,4.24 3.48,4.24
             3.48,4.24 3.51,4.07 3.51,4.07 Z
           M 5.07,3.99
           C 5.06,4.05 5.07,4.05 5.13,4.07
             5.13,4.07 5.13,4.04 5.13,4.04
             5.13,4.04 5.07,3.99 5.07,3.99 Z
           M 12.10,4.07
           C 12.10,4.07 12.01,4.00 12.01,4.00
             12.01,4.00 11.34,4.15 11.34,4.15
             11.37,4.19 11.38,4.22 11.43,4.23
             11.53,4.25 12.00,4.12 12.10,4.07 Z
           M 4.63,4.01
           C 4.63,4.01 4.57,4.01 4.57,4.01
             4.57,4.01 4.54,4.04 4.54,4.04
             4.58,4.16 4.80,4.47 4.91,4.51
             4.95,4.53 4.97,4.52 4.99,4.51
             4.99,4.51 4.63,4.01 4.63,4.01 Z
           M 4.71,4.01
           C 4.73,4.13 4.91,4.34 5.02,4.40
             4.98,4.22 4.89,4.09 4.71,4.01 Z
           M 2.03,4.04
           C 1.90,4.11 1.52,4.47 1.45,4.60
             1.50,4.61 1.53,4.62 1.59,4.60
             1.67,4.56 1.96,4.29 2.01,4.21
             2.04,4.15 2.03,4.10 2.03,4.04 Z
           M 6.88,4.04
           C 6.87,4.08 6.86,4.10 6.88,4.15
             6.90,4.23 7.14,4.44 7.22,4.48
             7.27,4.50 7.28,4.49 7.33,4.48
             7.33,4.48 6.88,4.04 6.88,4.04 Z
           M 15.30,4.04
           C 15.29,4.12 15.32,4.13 15.39,4.15
             15.39,4.15 15.30,4.04 15.30,4.04 Z
           M 5.16,4.07
           C 5.16,4.07 5.13,4.07 5.13,4.07
             5.13,4.07 5.16,4.10 5.16,4.10
             5.16,4.10 5.16,4.07 5.16,4.07 Z
           M 4.57,5.97
           C 4.68,5.42 4.96,5.34 5.21,4.96
             5.29,4.84 5.37,4.56 5.57,4.66
             5.76,4.76 5.63,5.00 5.56,5.13
             5.36,5.47 4.91,5.73 4.94,6.16
             4.95,6.31 5.04,6.48 5.12,6.61
             5.40,7.07 5.67,7.25 6.13,7.50
             6.21,7.54 6.57,7.73 6.63,7.74
             6.75,7.77 6.92,7.64 7.02,7.59
             7.43,7.38 7.70,7.23 7.95,6.83
             8.02,6.73 8.24,6.31 8.24,6.22
             8.23,6.09 8.04,5.99 7.90,5.77
             7.72,5.48 7.64,5.10 7.64,4.77
             7.64,4.63 7.62,4.26 7.67,4.16
             7.75,4.03 7.90,4.02 7.98,4.13
             8.03,4.21 8.00,4.64 8.00,4.77
             8.00,5.16 8.12,5.48 8.39,5.77
             8.39,5.77 8.69,4.49 8.69,4.49
             8.75,4.35 8.83,4.10 9.03,4.17
             9.27,4.26 9.03,4.61 8.98,4.82
             8.78,5.67 8.82,5.85 8.45,6.72
             8.79,6.61 9.36,6.63 9.73,6.63
             10.02,6.64 10.18,6.67 10.45,6.50
             10.80,6.27 10.85,5.94 10.94,5.57
             10.98,5.44 11.02,5.19 11.18,5.16
             11.22,5.15 11.27,5.16 11.31,5.18
             11.46,5.28 11.35,5.52 11.31,5.66
             11.15,6.21 11.16,6.45 10.65,6.83
             11.04,6.97 11.60,7.33 11.90,7.61
             11.90,7.61 12.21,7.94 12.21,7.94
             12.21,7.94 12.07,7.39 12.07,7.39
             12.45,7.14 12.60,7.35 12.91,7.58
             12.95,7.39 13.09,7.01 13.35,7.08
             13.49,7.11 13.65,7.27 13.77,7.36
             13.80,7.16 13.93,6.79 14.19,6.83
             14.33,6.85 14.45,6.98 14.55,7.08
             14.57,6.96 14.58,6.87 14.69,6.80
             14.69,6.80 14.64,7.14 14.64,7.14
             14.64,7.14 14.91,7.58 14.91,7.58
             14.91,7.58 14.55,7.25 14.55,7.25
             14.53,7.38 14.43,7.73 14.30,7.79
             14.11,7.86 13.89,7.64 13.77,7.53
             13.76,7.61 13.74,7.67 13.71,7.75
             13.69,7.81 13.67,7.86 13.63,7.91
             13.41,8.23 13.12,7.87 12.91,7.75
             12.87,7.93 12.77,8.18 12.60,8.27
             12.52,8.31 12.45,8.30 12.38,8.32
             12.28,8.35 12.21,8.42 12.10,8.38
             12.01,8.34 11.93,8.21 11.87,8.14
             11.87,8.14 11.51,7.78 11.51,7.78
             11.22,7.52 10.79,7.29 10.43,7.14
             10.58,7.51 10.57,7.89 10.38,8.25
             10.31,8.37 10.17,8.60 10.01,8.52
             9.89,8.47 9.88,8.35 9.93,8.25
             9.93,8.25 10.11,7.94 10.11,7.94
             10.21,7.68 10.17,7.42 10.02,7.19
             9.98,7.13 9.93,7.07 9.87,7.03
             9.80,7.00 9.72,7.00 9.64,7.00
             9.64,7.00 9.03,7.00 9.03,7.00
             8.85,7.00 8.34,7.08 8.20,7.18
             8.11,7.25 7.99,7.43 7.78,7.58
             7.78,7.58 7.05,8.03 7.05,8.03
             7.55,8.27 8.15,8.86 8.34,9.39
             8.54,9.95 8.41,10.69 8.09,11.18
             7.86,11.55 7.44,11.80 7.08,12.04
             7.08,12.04 7.64,12.37 7.64,12.37
             7.87,12.52 8.13,12.68 8.33,12.86
             8.70,13.18 9.06,13.74 9.03,14.24
             9.01,14.63 8.86,14.98 8.71,15.33
             8.65,15.46 8.58,15.67 8.39,15.63
             8.27,15.60 8.26,15.49 8.28,15.39
             8.28,15.39 7.83,15.39 7.83,15.39
             7.83,15.39 7.50,15.36 7.50,15.36
             7.50,15.36 6.33,15.36 6.33,15.36
             6.33,15.36 5.88,15.33 5.88,15.33
             5.88,15.33 5.07,15.33 5.07,15.33
             5.13,15.45 5.16,15.61 4.99,15.65
             4.81,15.69 4.74,15.49 4.68,15.36
             4.54,15.04 4.38,14.68 4.38,14.33
             4.38,14.33 4.38,14.19 4.38,14.19
             4.38,13.38 5.03,12.84 5.66,12.45
             5.83,12.34 6.15,12.12 6.33,12.07
             6.33,12.07 6.33,12.01 6.33,12.01
             6.18,11.96 6.04,11.85 5.91,11.76
             5.72,11.62 5.48,11.43 5.35,11.23
             5.13,10.94 4.91,10.26 4.94,9.90
             4.95,9.69 4.99,9.48 5.08,9.28
             5.37,8.63 5.78,8.41 6.30,8.00
             6.30,8.00 5.83,7.77 5.83,7.77
             5.75,7.72 5.60,7.63 5.52,7.61
             5.34,7.58 5.00,7.72 4.85,7.80
             4.85,7.80 5.05,7.94 5.05,7.94
             5.05,7.94 5.35,8.00 5.35,8.00
             5.35,8.00 5.35,8.06 5.35,8.06
             5.35,8.06 5.07,8.06 5.07,8.06
             5.12,8.14 5.24,8.34 5.18,8.44
             5.13,8.52 4.97,8.54 4.88,8.56
             4.91,8.61 4.96,8.69 4.97,8.75
             5.02,8.98 4.76,9.02 4.60,9.03
             4.63,9.10 4.66,9.16 4.68,9.23
             4.69,9.26 4.70,9.30 4.70,9.34
             4.70,9.42 4.66,9.52 4.57,9.54
             4.50,9.55 4.41,9.49 4.35,9.45
             4.19,9.37 3.89,9.25 4.16,9.05
             4.19,9.03 4.23,9.01 4.26,9.00
             4.33,8.98 4.39,8.98 4.46,8.98
             4.46,8.98 4.38,8.72 4.38,8.72
             3.95,8.95 4.01,8.31 4.09,8.08
             4.22,7.70 4.76,7.34 5.16,7.30
             4.75,6.74 3.99,6.89 3.43,7.09
             3.28,7.14 2.89,7.34 2.76,7.29
             2.64,7.24 2.62,7.10 2.70,7.01
             2.75,6.94 2.98,6.86 3.07,6.82
             3.71,6.57 3.98,6.55 4.66,6.55
             4.63,6.50 4.62,6.46 4.59,6.42
             4.53,6.37 4.18,6.21 3.99,6.04
             3.69,5.77 3.55,5.43 3.45,5.05
             3.41,4.89 3.28,4.47 3.51,4.41
             3.75,4.36 3.75,4.67 3.78,4.82
             3.89,5.32 4.08,5.74 4.57,5.97 Z
           M 4.96,4.10
           C 4.96,4.10 4.93,4.10 4.93,4.10
             4.93,4.10 4.96,4.13 4.96,4.13
             4.96,4.13 4.96,4.10 4.96,4.10 Z
           M 14.94,4.10
           C 14.94,4.10 14.89,4.10 14.89,4.10
             14.89,4.12 14.87,4.13 14.89,4.18
             14.92,4.25 15.12,4.48 15.19,4.51
             15.24,4.53 15.25,4.52 15.28,4.51
             15.28,4.51 14.94,4.10 14.94,4.10 Z
           M 15.30,4.43
           C 15.25,4.27 15.16,4.15 15.00,4.10
             15.06,4.23 15.18,4.36 15.30,4.43 Z
           M 4.54,4.15
           C 4.48,4.33 4.65,4.52 4.82,4.54
             4.82,4.54 4.54,4.15 4.54,4.15 Z
           M 12.04,4.15
           C 12.04,4.15 11.46,4.32 11.46,4.32
             11.65,4.41 11.95,4.37 12.04,4.15 Z
           M 15.22,4.15
           C 15.22,4.15 15.28,4.24 15.28,4.24
             15.28,4.24 15.22,4.15 15.22,4.15 Z
           M 14.86,4.21
           C 14.79,4.39 15.01,4.54 15.16,4.57
             15.16,4.57 14.86,4.21 14.86,4.21 Z
           M 6.89,4.24
           C 6.85,4.40 7.02,4.49 7.16,4.52
             7.16,4.52 6.89,4.24 6.89,4.24 Z
           M 2.03,4.29
           C 2.03,4.29 1.64,4.63 1.64,4.63
             1.86,4.62 2.01,4.51 2.03,4.29 Z
           M 10.73,4.32
           C 10.73,4.32 10.86,4.59 10.86,4.59
             10.86,4.59 11.15,4.82 11.15,4.82
             11.15,4.82 10.82,4.68 10.82,4.68
             10.83,4.89 10.94,5.24 10.59,5.21
             10.52,5.20 10.44,5.18 10.37,5.16
             10.37,5.25 10.38,5.46 10.34,5.54
             10.24,5.70 9.95,5.60 9.82,5.54
             9.82,5.66 9.84,5.71 9.82,5.83
             9.82,5.86 9.81,5.93 9.79,5.96
             9.75,6.05 9.65,6.15 9.54,6.12
             9.48,6.09 9.41,5.99 9.37,5.94
             9.27,5.80 8.96,5.52 9.26,5.40
             9.29,5.39 9.33,5.38 9.37,5.38
             9.52,5.37 9.59,5.40 9.73,5.44
             9.73,5.21 9.69,4.88 10.03,4.95
             10.03,4.95 10.26,5.02 10.26,5.02
             10.26,4.79 10.21,4.42 10.56,4.51
             10.62,4.52 10.68,4.55 10.73,4.57
             10.73,4.57 10.73,4.32 10.73,4.32 Z
           M 4.54,4.38
           C 4.53,4.45 4.54,4.45 4.60,4.49
             4.60,4.49 4.54,4.38 4.54,4.38 Z
           M 11.87,4.38
           C 11.87,4.38 11.71,4.43 11.71,4.43
             11.71,4.43 11.85,4.46 11.85,4.46
             11.85,4.46 11.87,4.38 11.87,4.38 Z
           M 4.43,4.96
           C 4.42,4.77 4.21,4.47 4.01,4.43
             4.07,4.61 4.29,4.85 4.43,4.96 Z
           M 14.89,4.43
           C 14.87,4.50 14.88,4.49 14.94,4.52
             14.94,4.52 14.94,4.49 14.94,4.49
             14.94,4.49 14.89,4.43 14.89,4.43 Z
           M 4.46,4.77
           C 4.44,4.60 4.37,4.51 4.21,4.46
             4.21,4.46 4.46,4.77 4.46,4.77 Z
           M 6.94,4.46
           C 6.94,4.46 6.91,4.46 6.91,4.46
             6.91,4.46 6.94,4.49 6.94,4.49
             6.94,4.49 6.94,4.46 6.94,4.46 Z
           M 3.96,4.49
           C 3.93,4.52 3.91,4.53 3.91,4.57
             3.91,4.66 4.16,4.98 4.24,5.02
             4.30,5.04 4.32,5.03 4.38,5.02
             4.38,5.02 3.96,4.49 3.96,4.49 Z
           M 14.83,4.93
           C 14.80,4.74 14.62,4.54 14.44,4.49
             14.52,4.67 14.67,4.82 14.83,4.93 Z
           M 14.63,4.49
           C 14.64,4.61 14.76,4.71 14.86,4.77
             14.81,4.62 14.76,4.57 14.63,4.49 Z
           M 4.43,4.52
           C 4.43,4.52 4.40,4.52 4.40,4.52
             4.40,4.52 4.43,4.54 4.43,4.54
             4.43,4.54 4.43,4.52 4.43,4.52 Z
           M 6.91,4.88
           C 6.88,4.68 6.72,4.53 6.52,4.52
             6.52,4.52 6.91,4.88 6.91,4.88 Z
           M 14.41,4.52
           C 14.38,4.55 14.35,4.57 14.36,4.63
             14.36,4.70 14.60,4.96 14.66,4.99
             14.71,5.01 14.73,5.00 14.77,4.99
             14.77,4.99 14.41,4.52 14.41,4.52 Z
           M 6.86,5.02
           C 6.86,4.84 6.58,4.59 6.41,4.54
             6.47,4.75 6.69,4.90 6.86,5.02 Z
           M 6.86,4.63
           C 6.86,4.63 6.77,4.54 6.77,4.54
             6.77,4.54 6.86,4.63 6.86,4.63 Z
           M 11.87,4.54
           C 11.87,4.54 11.85,4.54 11.85,4.54
             11.85,4.54 11.87,4.57 11.87,4.57
             11.87,4.57 11.87,4.54 11.87,4.54 Z
           M 10.76,4.93
           C 10.74,4.75 10.64,4.60 10.45,4.57
             10.45,4.57 10.76,4.93 10.76,4.93 Z
           M 11.85,4.57
           C 11.85,4.57 11.82,4.57 11.82,4.57
             11.82,4.57 11.85,4.60 11.85,4.60
             11.85,4.60 11.85,4.57 11.85,4.57 Z
           M 12.91,4.54
           C 12.91,4.54 12.96,4.54 12.96,4.54
             13.00,4.60 13.08,4.77 13.12,4.81
             13.19,4.87 13.50,4.89 13.60,4.91
             13.60,4.91 13.56,4.99 13.56,4.99
             13.56,4.99 13.16,4.96 13.16,4.96
             13.22,5.08 13.36,5.36 13.33,5.49
             13.29,5.69 12.98,5.69 12.82,5.69
             12.87,5.81 12.95,5.97 12.94,6.10
             12.92,6.38 12.56,6.38 12.35,6.38
             12.43,6.67 12.62,7.07 12.18,7.19
             12.06,7.04 11.64,6.79 11.46,6.69
             11.48,6.62 11.50,6.53 11.54,6.47
             11.67,6.27 11.94,6.27 12.15,6.27
             12.08,6.05 11.90,5.68 12.24,5.58
             12.28,5.57 12.36,5.56 12.40,5.55
             12.48,5.55 12.53,5.56 12.60,5.57
             12.53,5.32 12.30,4.90 12.74,4.83
             12.74,4.83 12.96,4.83 12.96,4.83
             12.91,4.71 12.88,4.67 12.91,4.54 Z
           M 10.43,4.60
           C 10.43,4.60 10.37,4.60 10.37,4.60
             10.37,4.60 10.34,4.63 10.34,4.63
             10.41,4.78 10.62,5.05 10.76,5.13
             10.73,4.93 10.54,4.76 10.43,4.60 Z
           M 12.13,4.66
           C 11.93,4.59 11.77,4.62 11.65,4.79
             11.65,4.79 12.13,4.66 12.13,4.66 Z
           M 2.17,4.63
           C 2.17,4.63 2.15,4.63 2.15,4.63
             2.15,4.63 2.17,4.66 2.17,4.66
             2.17,4.66 2.17,4.63 2.17,4.63 Z
           M 2.43,4.63
           C 2.17,4.64 2.00,4.84 1.95,5.07
             2.12,5.00 2.32,4.78 2.43,4.63 Z
           M 10.70,4.63
           C 10.70,4.63 10.68,4.63 10.68,4.63
             10.68,4.63 10.70,4.66 10.70,4.66
             10.70,4.66 10.70,4.63 10.70,4.63 Z
           M 2.15,4.66
           C 2.15,4.66 2.03,4.66 2.03,4.66
             2.03,4.66 2.01,4.79 2.01,4.79
             2.01,4.79 2.15,4.66 2.15,4.66 Z
           M 2.06,5.24
           C 2.06,5.24 2.29,5.04 2.29,5.04
             2.29,5.04 2.42,4.91 2.42,4.91
             2.46,4.87 2.60,4.77 2.56,4.70
             2.51,4.63 2.40,4.74 2.37,4.77
             2.29,4.84 2.01,5.06 2.01,5.15
             2.01,5.20 2.04,5.21 2.06,5.24 Z
           M 10.73,4.66
           C 10.73,4.66 10.70,4.66 10.70,4.66
             10.70,4.66 10.73,4.68 10.73,4.68
             10.73,4.68 10.73,4.66 10.73,4.66 Z
           M 6.41,4.68
           C 6.38,4.86 6.59,4.99 6.75,5.02
             6.75,5.02 6.41,4.68 6.41,4.68 Z
           M 12.29,4.82
           C 12.27,4.78 12.26,4.75 12.21,4.73
             12.15,4.71 12.05,4.74 11.99,4.76
             11.82,4.81 11.63,4.81 11.57,4.99
             11.57,4.99 12.29,4.82 12.29,4.82 Z
           M 10.34,4.77
           C 10.30,4.93 10.50,5.10 10.65,5.13
             10.65,5.13 10.34,4.77 10.34,4.77 Z
           M 2.59,4.82
           C 2.44,4.93 2.25,5.09 2.15,5.24
             2.38,5.23 2.57,5.05 2.59,4.82 Z
           M 12.35,4.85
           C 12.35,4.85 11.57,5.05 11.57,5.05
             11.57,5.05 11.62,5.18 11.62,5.18
             11.62,5.18 12.10,5.07 12.10,5.07
             12.10,5.07 12.30,4.99 12.30,4.99
             12.30,4.99 12.35,4.85 12.35,4.85 Z
           M 6.47,4.91
           C 6.47,4.91 6.44,4.91 6.44,4.91
             6.44,4.91 6.47,4.93 6.47,4.93
             6.47,4.93 6.47,4.91 6.47,4.91 Z
           M 13.16,5.24
           C 13.08,5.06 12.91,4.92 12.71,4.96
             12.71,4.96 13.16,5.24 13.16,5.24 Z
           M 13.02,4.93
           C 13.02,4.93 12.99,4.93 12.99,4.93
             12.99,4.93 13.02,4.96 13.02,4.96
             13.02,4.96 13.02,4.93 13.02,4.93 Z
           M 13.05,4.96
           C 13.05,4.96 13.02,4.96 13.02,4.96
             13.02,4.96 13.05,4.99 13.05,4.99
             13.05,4.99 13.05,4.96 13.05,4.96 Z
           M 10.37,4.99
           C 10.35,5.05 10.37,5.05 10.43,5.07
             10.43,5.07 10.43,5.05 10.43,5.05
             10.43,5.05 10.37,4.99 10.37,4.99 Z
           M 12.63,4.99
           C 12.58,5.12 12.66,5.17 12.77,5.24
             12.91,5.33 13.08,5.45 13.24,5.49
             13.24,5.49 13.19,5.37 13.19,5.37
             13.19,5.37 12.63,4.99 12.63,4.99 Z
           M 6.44,5.44
           C 6.37,5.34 6.15,5.09 6.05,5.05
             6.00,5.03 5.98,5.04 5.94,5.05
             6.04,5.19 6.24,5.45 6.44,5.44 Z
           M 6.47,5.35
           C 6.43,5.19 6.29,4.98 6.10,5.05
             6.10,5.05 6.47,5.35 6.47,5.35 Z
           M 6.33,5.02
           C 6.33,5.02 6.44,5.16 6.44,5.16
             6.44,5.16 6.33,5.02 6.33,5.02 Z
           M 9.92,5.02
           C 9.92,5.02 9.87,5.02 9.87,5.02
             9.87,5.02 9.84,5.05 9.84,5.05
             9.88,5.16 10.09,5.47 10.20,5.52
             10.25,5.53 10.26,5.52 10.29,5.52
             10.29,5.52 9.92,5.02 9.92,5.02 Z
           M 10.01,5.02
           C 10.03,5.15 10.21,5.33 10.31,5.41
             10.28,5.22 10.18,5.09 10.01,5.02 Z
           M 10.45,5.07
           C 10.45,5.07 10.43,5.07 10.43,5.07
             10.43,5.07 10.45,5.10 10.45,5.10
             10.45,5.10 10.45,5.07 10.45,5.07 Z
           M 2.54,5.10
           C 2.54,5.10 2.40,5.21 2.40,5.21
             2.40,5.21 2.54,5.10 2.54,5.10 Z
           M 10.26,5.10
           C 10.26,5.10 10.23,5.10 10.23,5.10
             10.23,5.10 10.26,5.13 10.26,5.13
             10.26,5.13 10.26,5.10 10.26,5.10 Z
           M 5.94,5.13
           C 5.91,5.30 6.10,5.41 6.24,5.44
             6.24,5.44 5.94,5.13 5.94,5.13 Z
           M 9.84,5.16
           C 9.78,5.33 9.95,5.52 10.12,5.55
             10.12,5.55 9.84,5.16 9.84,5.16 Z
           M 13.63,5.16
           C 13.63,5.16 13.69,5.16 13.69,5.16
             13.69,5.16 13.74,5.38 13.74,5.38
             13.85,5.34 13.97,5.26 14.08,5.26
             14.33,5.26 14.42,5.57 14.47,5.77
             14.57,5.71 14.68,5.63 14.80,5.61
             15.07,5.57 15.18,5.87 15.22,6.08
             15.35,6.04 15.47,5.96 15.61,5.94
             15.73,5.93 15.95,5.96 15.97,6.11
             15.99,6.17 15.89,6.39 15.86,6.47
             15.84,6.54 15.79,6.71 15.74,6.74
             15.65,6.80 15.48,6.72 15.42,6.66
             15.37,6.61 15.34,6.55 15.31,6.49
             15.26,6.40 15.24,6.32 15.22,6.22
             14.93,6.34 14.64,6.53 14.49,6.10
             14.46,6.04 14.45,5.98 14.44,5.91
             14.33,5.96 14.14,6.06 14.02,6.04
             13.84,6.00 13.77,5.70 13.74,5.55
             13.60,5.62 13.54,5.72 13.38,5.71
             13.38,5.71 13.66,5.41 13.66,5.41
             13.66,5.41 13.63,5.16 13.63,5.16 Z
           M 2.95,5.21
           C 2.71,5.22 2.52,5.41 2.51,5.66
             2.51,5.66 2.95,5.21 2.95,5.21 Z
           M 2.51,5.74
           C 2.73,5.79 2.83,5.60 2.98,5.47
             3.02,5.43 3.12,5.36 3.12,5.30
             3.12,5.14 2.87,5.36 2.84,5.39
             2.84,5.39 2.70,5.52 2.70,5.52
             2.63,5.60 2.57,5.65 2.51,5.74 Z
           M 12.63,5.21
           C 12.62,5.38 12.87,5.55 13.02,5.55
             13.07,5.56 13.09,5.54 13.13,5.52
             13.13,5.52 12.63,5.21 12.63,5.21 Z
           M 0.39,5.24
           C 0.82,5.12 0.89,5.53 0.92,5.85
             1.09,5.76 1.41,5.58 1.57,5.78
             1.64,5.87 1.66,6.12 1.67,6.24
             1.89,6.09 2.29,5.90 2.40,6.27
             2.42,6.36 2.42,6.44 2.43,6.52
             2.43,6.52 2.68,6.41 2.68,6.41
             2.68,6.41 2.70,6.44 2.70,6.44
             2.61,6.61 2.52,6.59 2.45,6.70
             2.36,6.85 2.53,7.17 2.29,7.14
             2.29,7.14 2.31,6.75 2.31,6.75
             2.09,6.84 1.78,7.11 1.63,6.80
             1.61,6.76 1.60,6.71 1.59,6.66
             1.57,6.58 1.57,6.53 1.56,6.44
             1.49,6.49 1.42,6.53 1.34,6.57
             0.92,6.75 0.84,6.37 0.84,6.05
             0.53,6.18 0.20,6.38 0.00,5.97
             0.00,5.97 0.26,5.55 0.26,5.55
             0.26,5.55 0.39,5.24 0.39,5.24 Z
           M 2.70,5.24
           C 2.70,5.24 2.56,5.24 2.56,5.24
             2.56,5.24 2.54,5.41 2.54,5.41
             2.54,5.41 2.70,5.24 2.70,5.24 Z
           M 0.61,5.35
           C 0.61,5.35 0.46,5.35 0.46,5.35
             0.46,5.35 0.20,5.80 0.20,5.80
             0.20,5.80 0.15,5.96 0.15,5.96
             0.15,5.96 0.25,6.08 0.25,6.08
             0.25,6.08 0.61,5.35 0.61,5.35 Z
           M 14.05,5.32
           C 13.89,5.42 13.80,5.63 13.91,5.80
             13.91,5.80 14.05,5.32 14.05,5.32 Z
           M 14.02,5.97
           C 14.02,5.97 14.21,5.41 14.21,5.41
             14.21,5.41 14.13,5.32 14.13,5.32
             14.05,5.50 13.92,5.77 13.97,5.97
             13.97,5.97 14.02,5.97 14.02,5.97 Z
           M 3.18,5.35
           C 3.18,5.35 2.76,5.74 2.76,5.74
             2.98,5.73 3.15,5.57 3.18,5.35 Z
           M 5.99,5.35
           C 5.99,5.35 5.97,5.35 5.97,5.35
             5.97,5.35 5.99,5.38 5.99,5.38
             5.99,5.38 5.99,5.35 5.99,5.35 Z
           M 6.02,5.38
           C 6.02,5.38 5.99,5.38 5.99,5.38
             5.99,5.38 6.02,5.41 6.02,5.41
             6.02,5.41 6.02,5.38 6.02,5.38 Z
           M 9.84,5.38
           C 9.83,5.45 9.83,5.45 9.90,5.49
             9.90,5.49 9.84,5.38 9.84,5.38 Z
           M 0.70,5.41
           C 0.70,5.41 0.64,5.41 0.64,5.41
             0.64,5.41 0.31,6.10 0.31,6.10
             0.36,6.10 0.39,6.10 0.44,6.06
             0.50,6.01 0.72,5.62 0.73,5.55
             0.74,5.49 0.72,5.46 0.70,5.41 Z
           M 9.73,5.97
           C 9.71,5.77 9.51,5.47 9.31,5.44
             9.37,5.61 9.58,5.86 9.73,5.97 Z
           M 13.85,5.44
           C 13.85,5.44 13.83,5.55 13.83,5.55
             13.83,5.55 13.85,5.44 13.85,5.44 Z
           M 9.76,5.77
           C 9.73,5.60 9.67,5.51 9.51,5.46
             9.51,5.46 9.76,5.77 9.76,5.77 Z
           M 9.25,5.49
           C 9.23,5.52 9.21,5.53 9.21,5.58
             9.20,5.66 9.46,5.98 9.54,6.02
             9.59,6.05 9.62,6.03 9.67,6.02
             9.67,6.02 9.25,5.49 9.25,5.49 Z
           M 12.74,5.49
           C 12.75,5.57 12.78,5.57 12.85,5.55
             12.85,5.55 12.74,5.49 12.74,5.49 Z
           M 14.27,5.49
           C 14.27,5.49 14.08,5.97 14.08,5.97
             14.27,5.92 14.38,5.66 14.27,5.49 Z
           M 7.47,5.49
           C 7.47,5.49 7.55,5.49 7.55,5.49
             7.55,5.78 7.58,5.79 7.89,5.97
             7.89,5.97 7.86,6.05 7.86,6.05
             7.86,6.05 7.55,5.85 7.55,5.85
             7.55,5.96 7.55,6.27 7.46,6.33
             7.35,6.40 7.14,6.31 7.02,6.27
             7.02,6.34 7.02,6.40 7.02,6.47
             6.94,6.85 6.65,6.69 6.41,6.61
             6.40,6.93 6.38,7.07 6.05,7.16
             6.05,7.16 5.78,6.72 5.78,6.72
             5.75,6.67 5.69,6.58 5.69,6.52
             5.70,6.47 5.73,6.43 5.77,6.40
             5.94,6.28 6.19,6.42 6.36,6.47
             6.36,6.40 6.35,6.28 6.36,6.22
             6.43,5.86 6.74,6.02 6.94,6.13
             6.94,5.90 6.95,5.52 7.30,5.63
             7.36,5.65 7.42,5.68 7.47,5.71
             7.47,5.71 7.47,5.49 7.47,5.49 Z
           M 9.73,5.52
           C 9.73,5.52 9.70,5.52 9.70,5.52
             9.70,5.52 9.73,5.55 9.73,5.55
             9.73,5.55 9.73,5.52 9.73,5.52 Z
           M 3.12,5.60
           C 3.12,5.60 3.01,5.71 3.01,5.71
             3.09,5.68 3.09,5.69 3.12,5.60 Z
           M 0.78,5.63
           C 0.78,5.63 0.53,6.05 0.53,6.05
             0.74,5.97 0.78,5.84 0.78,5.63 Z
           M 12.82,6.02
           C 12.77,5.84 12.51,5.60 12.32,5.71
             12.32,5.71 12.82,6.02 12.82,6.02 Z
           M 7.16,5.69
           C 7.16,5.69 7.10,5.69 7.10,5.69
             7.10,5.73 7.09,5.75 7.10,5.80
             7.13,5.93 7.33,6.21 7.44,6.27
             7.42,6.06 7.26,5.88 7.16,5.69 Z
           M 7.25,5.69
           C 7.25,5.82 7.38,6.01 7.47,6.10
             7.46,5.93 7.40,5.79 7.25,5.69 Z
           M 14.80,5.69
           C 14.61,5.76 14.53,6.01 14.61,6.19
             14.61,6.19 14.80,5.69 14.80,5.69 Z
           M 15.00,5.71
           C 14.96,5.71 14.93,5.69 14.90,5.71
             14.83,5.73 14.80,5.82 14.78,5.88
             14.76,5.96 14.65,6.19 14.69,6.26
             14.71,6.29 14.74,6.29 14.77,6.30
             14.77,6.30 15.00,5.71 15.00,5.71 Z
           M 12.80,6.22
           C 12.80,6.18 12.82,6.15 12.80,6.11
             12.78,6.04 12.48,5.87 12.40,5.82
             12.36,5.79 12.23,5.69 12.19,5.76
             12.13,5.84 12.33,5.94 12.38,5.97
             12.38,5.97 12.54,6.07 12.54,6.07
             12.54,6.07 12.80,6.22 12.80,6.22 Z
           M 14.38,5.71
           C 14.38,5.71 14.30,5.88 14.30,5.88
             14.30,5.88 14.41,5.83 14.41,5.83
             14.41,5.83 14.38,5.71 14.38,5.71 Z
           M 7.44,5.77
           C 7.44,5.77 7.41,5.77 7.41,5.77
             7.41,5.77 7.44,5.80 7.44,5.80
             7.44,5.80 7.44,5.77 7.44,5.77 Z
           M 1.03,6.47
           C 1.07,6.47 1.09,6.49 1.13,6.47
             1.21,6.45 1.35,6.13 1.39,6.05
             1.42,6.00 1.50,5.87 1.43,5.83
             1.35,5.78 1.27,5.97 1.25,6.02
             1.25,6.02 1.16,6.19 1.16,6.19
             1.16,6.19 1.03,6.47 1.03,6.47 Z
           M 15.05,5.80
           C 14.95,5.90 14.87,6.15 14.83,6.30
             15.06,6.23 15.10,6.01 15.05,5.80 Z
           M 1.28,5.83
           C 1.04,5.88 0.98,6.14 0.98,6.36
             1.10,6.28 1.22,5.97 1.28,5.83 Z
           M 14.58,5.83
           C 14.58,5.83 14.52,5.83 14.52,5.83
             14.52,5.83 14.52,5.94 14.52,5.94
             14.52,5.94 14.58,5.83 14.58,5.83 Z
           M 7.05,5.85
           C 6.99,6.02 7.17,6.24 7.33,6.27
             7.33,6.27 7.05,5.85 7.05,5.85 Z
           M 12.18,5.91
           C 12.15,6.08 12.47,6.32 12.68,6.22
             12.68,6.22 12.18,5.91 12.18,5.91 Z
           M 1.03,5.94
           C 1.03,5.94 0.98,5.94 0.98,5.94
             0.98,5.94 0.98,6.05 0.98,6.05
             0.98,6.05 1.03,5.94 1.03,5.94 Z
           M 1.53,5.94
           C 1.42,6.07 1.30,6.30 1.25,6.47
             1.48,6.39 1.53,6.15 1.53,5.94 Z
           M 15.72,5.99
           C 15.67,6.00 15.64,6.01 15.60,6.04
             15.55,6.09 15.43,6.45 15.44,6.52
             15.44,6.58 15.46,6.59 15.50,6.63
             15.50,6.63 15.72,5.99 15.72,5.99 Z
           M 15.14,6.02
           C 15.14,6.02 15.08,6.19 15.08,6.19
             15.16,6.13 15.15,6.12 15.14,6.02 Z
           M 15.83,6.02
           C 15.72,6.14 15.59,6.50 15.55,6.66
             15.60,6.68 15.65,6.70 15.70,6.66
             15.75,6.63 15.78,6.52 15.80,6.47
             15.87,6.28 15.95,6.19 15.83,6.02 Z
           M 6.58,6.05
           C 6.55,6.07 6.53,6.08 6.52,6.12
             6.50,6.17 6.56,6.25 6.59,6.30
             6.67,6.43 6.73,6.59 6.89,6.63
             6.84,6.43 6.68,6.23 6.58,6.05 Z
           M 15.53,6.05
           C 15.34,6.12 15.28,6.30 15.39,6.47
             15.39,6.47 15.53,6.05 15.53,6.05 Z
           M 6.69,6.08
           C 6.68,6.21 6.85,6.44 6.94,6.52
             6.93,6.32 6.86,6.19 6.69,6.08 Z
           M 7.05,6.08
           C 7.03,6.16 7.04,6.17 7.11,6.22
             7.11,6.22 7.05,6.08 7.05,6.08 Z
           M 2.23,6.19
           C 2.23,6.19 2.13,6.19 2.13,6.19
             2.13,6.19 2.01,6.36 2.01,6.36
             2.01,6.36 1.78,6.83 1.78,6.83
             1.84,6.82 1.87,6.82 1.91,6.78
             1.99,6.72 2.20,6.30 2.23,6.19 Z
           M 12.26,6.16
           C 12.26,6.16 12.24,6.16 12.24,6.16
             12.24,6.16 12.26,6.19 12.26,6.19
             12.26,6.19 12.26,6.16 12.26,6.16 Z
           M 6.47,6.19
           C 6.39,6.38 6.56,6.59 6.75,6.63
             6.75,6.63 6.47,6.19 6.47,6.19 Z
           M 6.91,6.19
           C 6.91,6.19 6.89,6.19 6.89,6.19
             6.89,6.19 6.91,6.22 6.91,6.22
             6.91,6.22 6.91,6.19 6.91,6.19 Z
           M 12.29,6.19
           C 12.29,6.26 12.31,6.25 12.38,6.27
             12.38,6.27 12.29,6.19 12.29,6.19 Z
           M 2.01,6.22
           C 1.96,6.23 1.93,6.23 1.89,6.26
             1.82,6.32 1.71,6.55 1.71,6.63
             1.71,6.69 1.73,6.70 1.76,6.75
             1.76,6.75 2.01,6.22 2.01,6.22 Z
           M 2.29,6.27
           C 2.18,6.40 2.08,6.59 2.03,6.75
             2.22,6.65 2.32,6.48 2.29,6.27 Z
           M 1.51,6.33
           C 1.51,6.33 1.48,6.33 1.48,6.33
             1.48,6.33 1.51,6.36 1.51,6.36
             1.51,6.36 1.51,6.33 1.51,6.33 Z
           M 1.76,6.33
           C 1.68,6.39 1.67,6.40 1.70,6.49
             1.70,6.49 1.76,6.33 1.76,6.33 Z
           M 12.32,6.66
           C 12.24,6.47 12.14,6.39 11.93,6.38
             12.03,6.50 12.18,6.61 12.32,6.66 Z
           M 12.21,6.38
           C 12.21,6.38 12.18,6.38 12.18,6.38
             12.18,6.38 12.21,6.41 12.21,6.41
             12.21,6.41 12.21,6.38 12.21,6.38 Z
           M 6.27,7.00
           C 6.27,7.00 6.27,6.89 6.27,6.89
             6.27,6.89 6.01,6.46 6.01,6.46
             6.01,6.46 5.91,6.41 5.91,6.41
             5.95,6.58 6.14,6.88 6.27,7.00 Z
           M 6.44,6.41
           C 6.41,6.49 6.43,6.50 6.49,6.55
             6.49,6.55 6.44,6.41 6.44,6.41 Z
           M 12.35,6.91
           C 12.34,6.85 12.34,6.81 12.30,6.75
             12.25,6.67 11.89,6.42 11.79,6.43
             11.74,6.43 11.72,6.46 11.68,6.49
             11.68,6.49 12.35,6.91 12.35,6.91 Z
           M 1.25,6.47
           C 1.25,6.47 1.23,6.47 1.23,6.47
             1.23,6.47 1.25,6.49 1.25,6.49
             1.25,6.49 1.25,6.47 1.25,6.47 Z
           M 5.86,6.47
           C 5.72,6.55 5.79,6.63 5.86,6.75
             5.95,6.89 6.00,7.07 6.19,7.05
             6.19,7.05 5.86,6.47 5.86,6.47 Z
           M 6.13,6.47
           C 6.13,6.58 6.23,6.74 6.33,6.80
             6.32,6.64 6.28,6.55 6.13,6.47 Z
           M 11.65,6.52
           C 11.61,6.58 11.59,6.61 11.62,6.68
             11.66,6.74 11.76,6.80 11.82,6.84
             12.00,6.96 12.20,7.17 12.32,6.94
             12.32,6.94 11.65,6.52 11.65,6.52 Z
           M 6.33,6.55
           C 6.33,6.55 6.30,6.55 6.30,6.55
             6.30,6.55 6.33,6.58 6.33,6.58
             6.33,6.58 6.33,6.55 6.33,6.55 Z
           M 2.29,6.61
           C 2.29,6.61 2.26,6.61 2.26,6.61
             2.26,6.61 2.29,6.63 2.29,6.63
             2.29,6.63 2.29,6.61 2.29,6.61 Z
           M 14.13,6.89
           C 13.98,6.98 14.04,7.07 14.08,7.22
             14.08,7.22 14.22,7.75 14.22,7.75
             14.36,7.67 14.32,7.58 14.28,7.44
             14.28,7.44 14.13,6.89 14.13,6.89 Z
           M 14.24,6.91
           C 14.20,7.04 14.31,7.44 14.38,7.55
             14.45,7.34 14.42,7.07 14.24,6.91 Z
           M 13.99,7.02
           C 13.95,7.07 13.94,7.08 13.92,7.14
             13.89,7.24 13.97,7.58 14.04,7.65
             14.07,7.68 14.12,7.70 14.16,7.72
             14.16,7.72 13.99,7.02 13.99,7.02 Z
           M 14.47,7.11
           C 14.44,7.19 14.45,7.20 14.49,7.28
             14.49,7.28 14.47,7.11 14.47,7.11 Z
           M 13.18,7.16
           C 13.18,7.16 13.26,7.47 13.26,7.47
             13.26,7.47 13.32,7.69 13.32,7.69
             13.33,7.74 13.38,8.00 13.47,7.94
             13.53,7.90 13.48,7.75 13.47,7.69
             13.47,7.69 13.37,7.30 13.37,7.30
             13.36,7.25 13.34,7.18 13.28,7.16
             13.25,7.14 13.22,7.16 13.18,7.16 Z
           M 13.44,7.19
           C 13.39,7.34 13.52,7.69 13.55,7.86
             13.74,7.72 13.58,7.32 13.44,7.19 Z
           M 13.16,7.25
           C 13.12,7.29 13.10,7.30 13.09,7.36
             13.06,7.46 13.11,7.74 13.18,7.83
             13.22,7.88 13.27,7.91 13.32,7.94
             13.32,7.94 13.16,7.25 13.16,7.25 Z
           M 2.34,7.25
           C 2.34,7.25 2.44,7.57 2.44,7.57
             2.44,7.57 2.76,7.86 2.76,7.86
             2.76,7.86 2.40,7.67 2.40,7.67
             2.38,7.78 2.37,8.09 2.32,8.16
             2.21,8.30 1.92,8.16 1.78,8.11
             1.78,8.22 1.80,8.41 1.75,8.50
             1.62,8.74 1.28,8.57 1.11,8.47
             1.11,8.60 1.11,8.66 1.08,8.78
             1.07,8.84 1.06,8.89 1.03,8.95
             0.98,9.03 0.84,9.13 0.74,9.10
             0.67,9.07 0.58,8.90 0.55,8.84
             0.50,8.76 0.34,8.52 0.33,8.45
             0.30,8.23 0.61,8.21 0.75,8.25
             0.75,8.25 1.06,8.36 1.06,8.36
             1.06,8.17 1.05,7.84 1.31,7.82
             1.43,7.82 1.62,7.92 1.73,7.97
             1.73,7.78 1.70,7.37 2.01,7.40
             2.05,7.40 2.11,7.42 2.15,7.43
             2.22,7.46 2.25,7.48 2.31,7.53
             2.31,7.53 2.34,7.25 2.34,7.25 Z
           M 9.03,7.25
           C 9.03,7.25 9.31,7.40 9.31,7.40
             9.31,7.40 9.76,7.30 9.76,7.30
             9.68,7.43 9.51,7.46 9.37,7.47
             9.58,7.69 9.93,7.91 9.53,8.16
             9.47,8.20 9.41,8.23 9.34,8.25
             9.43,8.34 9.58,8.46 9.62,8.59
             9.70,8.82 9.38,8.98 9.20,9.03
             9.20,9.03 9.20,9.09 9.20,9.09
             9.35,9.17 9.54,9.37 9.52,9.56
             9.52,9.63 9.48,9.72 9.45,9.78
             9.45,9.78 8.86,9.69 8.86,9.69
             8.81,9.68 8.67,9.67 8.63,9.64
             8.58,9.60 8.58,9.51 8.59,9.45
             8.61,9.22 8.87,9.11 9.06,9.03
             8.90,8.89 8.60,8.62 8.84,8.41
             8.92,8.34 9.08,8.28 9.17,8.25
             8.98,8.06 8.65,7.78 9.00,7.56
             9.06,7.53 9.14,7.50 9.20,7.47
             9.20,7.47 9.03,7.25 9.03,7.25 Z
           M 13.88,7.30
           C 13.79,7.42 13.83,7.47 13.94,7.55
             13.94,7.55 13.88,7.30 13.88,7.30 Z
           M 12.38,7.33
           C 12.38,7.33 12.41,7.61 12.41,7.61
             12.41,7.61 12.57,8.20 12.57,8.20
             12.57,8.20 12.66,8.08 12.66,8.08
             12.66,8.08 12.64,7.89 12.64,7.89
             12.64,7.89 12.51,7.42 12.51,7.42
             12.51,7.42 12.38,7.33 12.38,7.33 Z
           M 12.29,7.36
           C 12.12,7.42 12.16,7.51 12.20,7.67
             12.20,7.67 12.35,8.22 12.35,8.22
             12.35,8.22 12.52,8.22 12.52,8.22
             12.52,8.22 12.29,7.36 12.29,7.36 Z
           M 13.66,7.39
           C 13.66,7.39 13.69,7.55 13.69,7.55
             13.69,7.55 13.66,7.39 13.66,7.39 Z
           M 3.32,7.41
           C 3.53,7.48 3.47,7.61 3.60,7.69
             3.69,7.74 4.02,7.74 4.15,7.78
             4.15,7.78 4.15,7.83 4.15,7.83
             3.99,7.88 3.82,7.86 3.65,7.83
             3.75,8.06 4.06,8.46 3.71,8.61
             3.67,8.63 3.58,8.65 3.54,8.66
             3.45,8.67 3.38,8.67 3.29,8.66
             3.34,8.76 3.42,8.88 3.45,8.98
             3.61,9.44 3.14,9.48 2.82,9.48
             2.96,9.76 3.19,10.29 2.70,10.40
             2.58,10.25 2.37,10.17 2.20,10.07
             2.11,10.02 2.03,9.96 1.92,9.95
             1.79,9.48 2.27,9.40 2.62,9.39
             2.52,9.17 2.30,8.78 2.62,8.62
             2.68,8.59 2.77,8.58 2.84,8.57
             2.96,8.56 2.98,8.56 3.09,8.56
             2.97,8.38 2.77,7.97 3.01,7.80
             3.13,7.72 3.29,7.72 3.43,7.72
             3.43,7.72 3.32,7.41 3.32,7.41 Z
           M 12.63,7.44
           C 12.59,7.56 12.67,7.89 12.74,8.00
             12.83,7.79 12.77,7.61 12.63,7.44 Z
           M 1.95,7.47
           C 1.95,7.47 1.90,7.47 1.90,7.47
             1.90,7.47 1.87,7.58 1.87,7.58
             1.87,7.58 2.20,8.14 2.20,8.14
             2.20,8.14 2.26,8.14 2.26,8.14
             2.26,8.14 2.26,8.03 2.26,8.03
             2.26,8.03 1.95,7.47 1.95,7.47 Z
           M 2.03,7.47
           C 2.04,7.60 2.21,7.85 2.31,7.92
             2.29,7.74 2.21,7.55 2.03,7.47 Z
           M 9.34,7.55
           C 9.34,7.55 9.23,7.53 9.23,7.53
             9.27,7.58 9.27,7.58 9.34,7.55 Z
           M 13.05,7.53
           C 13.05,7.53 12.99,7.53 12.99,7.53
             12.98,7.65 12.98,7.66 13.07,7.75
             13.07,7.75 13.05,7.53 13.05,7.53 Z
           M 2.26,7.55
           C 2.26,7.55 2.23,7.55 2.23,7.55
             2.23,7.55 2.26,7.58 2.26,7.58
             2.26,7.58 2.26,7.55 2.26,7.55 Z
           M 2.29,7.58
           C 2.29,7.58 2.31,7.69 2.31,7.69
             2.31,7.69 2.29,7.58 2.29,7.58 Z
           M 9.53,7.75
           C 9.42,7.62 9.09,7.53 8.98,7.69
             8.98,7.69 9.53,7.75 9.53,7.75 Z
           M 12.82,7.61
           C 12.82,7.61 12.85,7.75 12.85,7.75
             12.85,7.75 12.82,7.61 12.82,7.61 Z
           M 1.84,7.64
           C 1.76,7.83 1.95,8.11 2.15,8.14
             2.15,8.14 1.84,7.64 1.84,7.64 Z
           M 9.67,7.94
           C 9.67,7.94 9.59,7.83 9.59,7.83
             9.59,7.83 8.92,7.72 8.92,7.72
             8.92,7.72 8.92,7.86 8.92,7.86
             8.92,7.86 9.67,7.94 9.67,7.94 Z
           M 4.85,7.80
           C 4.66,7.88 4.46,8.07 4.41,8.28
             4.40,8.35 4.40,8.48 4.41,8.56
             4.41,8.56 4.74,8.47 4.74,8.47
             4.66,8.30 4.53,8.08 4.79,8.00
             4.79,8.00 4.93,7.97 4.93,7.97
             4.93,7.97 4.85,7.80 4.85,7.80 Z
           M 3.68,8.20
           C 3.62,7.99 3.34,7.77 3.12,7.89
             3.12,7.89 3.68,8.20 3.68,8.20 Z
           M 1.31,7.89
           C 1.31,7.89 1.20,7.92 1.20,7.92
             1.20,7.92 1.56,8.56 1.56,8.56
             1.69,8.48 1.63,8.42 1.56,8.31
             1.56,8.31 1.31,7.89 1.31,7.89 Z
           M 1.39,7.89
           C 1.39,7.89 1.37,7.89 1.37,7.89
             1.37,7.89 1.39,7.92 1.39,7.92
             1.39,7.92 1.39,7.89 1.39,7.89 Z
           M 1.81,7.89
           C 1.77,7.99 1.80,8.02 1.90,8.06
             1.90,8.06 1.81,7.89 1.81,7.89 Z
           M 3.54,7.89
           C 3.54,7.89 3.51,7.89 3.51,7.89
             3.51,7.89 3.54,7.92 3.54,7.92
             3.54,7.92 3.54,7.89 3.54,7.89 Z
           M 1.42,7.92
           C 1.41,8.05 1.61,8.32 1.70,8.42
             1.70,8.20 1.64,8.01 1.42,7.92 Z
           M 3.76,8.45
           C 3.76,8.45 3.71,8.30 3.71,8.30
             3.71,8.30 3.46,8.13 3.46,8.13
             3.46,8.13 3.04,7.92 3.04,7.92
             3.04,7.92 3.06,8.07 3.06,8.07
             3.06,8.07 3.29,8.22 3.29,8.22
             3.29,8.22 3.76,8.45 3.76,8.45 Z
           M 9.62,8.00
           C 9.62,8.00 8.98,7.92 8.98,7.92
             9.01,7.96 9.03,8.00 9.09,8.03
             9.16,8.07 9.45,8.10 9.53,8.06
             9.58,8.05 9.58,8.03 9.62,8.00 Z
           M 11.04,8.72
           C 10.83,8.73 10.45,8.82 10.38,8.53
             10.37,8.49 10.37,8.46 10.38,8.42
             10.42,8.36 10.74,8.09 10.82,8.03
             10.87,7.98 10.93,7.92 11.01,7.94
             11.31,8.01 11.18,8.44 11.15,8.64
             11.32,8.59 11.66,8.56 11.72,8.78
             11.76,8.91 11.69,9.10 11.65,9.23
             11.80,9.18 12.13,9.13 12.23,9.29
             12.30,9.41 12.25,9.61 12.21,9.73
             12.21,9.73 12.49,9.70 12.49,9.70
             12.49,9.70 12.19,9.85 12.19,9.85
             12.19,9.85 11.96,10.23 11.96,10.23
             11.96,10.23 12.10,9.81 12.10,9.81
             11.97,9.84 11.63,9.91 11.54,9.81
             11.44,9.69 11.51,9.44 11.54,9.31
             11.54,9.31 11.32,9.35 11.32,9.35
             10.87,9.41 10.98,8.99 11.04,8.72 Z
           M 11.07,8.03
           C 10.85,7.99 10.80,8.11 10.65,8.24
             10.59,8.30 10.49,8.37 10.46,8.45
             10.44,8.50 10.46,8.53 10.48,8.59
             10.65,8.51 10.99,8.19 11.07,8.03 Z
           M 1.17,8.03
           C 1.09,8.23 1.28,8.49 1.48,8.53
             1.48,8.53 1.17,8.03 1.17,8.03 Z
           M 1.67,8.03
           C 1.67,8.03 1.64,8.03 1.64,8.03
             1.64,8.03 1.67,8.06 1.67,8.06
             1.67,8.06 1.67,8.03 1.67,8.03 Z
           M 1.92,8.06
           C 1.92,8.06 1.90,8.06 1.90,8.06
             1.90,8.06 1.92,8.08 1.92,8.08
             1.92,8.08 1.92,8.06 1.92,8.06 Z
           M 5.07,8.25
           C 5.01,8.14 4.90,8.04 4.77,8.08
             4.77,8.08 5.07,8.25 5.07,8.25 Z
           M 5.13,8.39
           C 5.06,8.27 4.83,8.14 4.68,8.14
             4.80,8.26 4.97,8.34 5.13,8.39 Z
           M 9.39,8.11
           C 9.39,8.11 9.17,8.11 9.17,8.11
             9.25,8.19 9.32,8.22 9.39,8.11 Z
           M 11.12,8.11
           C 11.12,8.11 10.54,8.64 10.54,8.64
             10.59,8.65 10.62,8.66 10.68,8.64
             10.76,8.61 11.05,8.36 11.09,8.28
             11.12,8.22 11.12,8.17 11.12,8.11 Z
           M 3.07,8.17
           C 3.04,8.35 3.38,8.53 3.54,8.52
             3.60,8.52 3.61,8.51 3.65,8.47
             3.65,8.47 3.07,8.17 3.07,8.17 Z
           M 7.47,8.81
           C 7.33,8.62 7.10,8.48 6.91,8.35
             6.84,8.31 6.75,8.23 6.66,8.24
             6.60,8.25 6.47,8.34 6.41,8.38
             6.23,8.49 6.06,8.63 5.91,8.78
             5.91,8.78 6.33,8.78 6.33,8.78
             6.33,8.78 6.77,8.81 6.77,8.81
             6.77,8.81 7.47,8.81 7.47,8.81 Z
           M 4.74,8.25
           C 4.74,8.25 4.71,8.25 4.71,8.25
             4.71,8.25 4.74,8.28 4.74,8.28
             4.74,8.28 4.74,8.25 4.74,8.25 Z
           M 1.14,8.28
           C 1.11,8.36 1.11,8.38 1.20,8.42
             1.20,8.42 1.14,8.28 1.14,8.28 Z
           M 4.77,8.28
           C 4.77,8.41 4.97,8.46 5.07,8.42
             5.07,8.42 4.77,8.28 4.77,8.28 Z
           M 0.95,8.95
           C 0.95,8.95 0.97,8.81 0.97,8.81
             0.97,8.81 0.68,8.33 0.68,8.33
             0.68,8.33 0.53,8.31 0.53,8.31
             0.53,8.31 0.95,8.95 0.95,8.95 Z
           M 9.31,8.33
           C 9.31,8.33 9.17,8.33 9.17,8.33
             9.17,8.33 9.31,8.33 9.31,8.33 Z
           M 13.55,8.28
           C 13.57,8.39 13.47,8.47 13.41,8.56
             13.79,8.62 13.81,8.78 13.57,9.06
             13.62,9.07 13.67,9.07 13.71,9.09
             14.04,9.20 13.86,9.44 13.71,9.62
             13.99,9.68 14.08,9.75 14.08,10.03
             14.08,10.03 13.55,10.17 13.55,10.17
             13.42,10.17 13.38,10.03 13.40,9.92
             13.41,9.88 13.43,9.85 13.45,9.81
             13.49,9.75 13.53,9.70 13.57,9.64
             13.37,9.57 13.15,9.47 13.31,9.23
             13.35,9.18 13.39,9.13 13.44,9.09
             13.29,9.05 13.05,8.97 13.09,8.78
             13.10,8.71 13.17,8.62 13.21,8.56
             13.21,8.56 13.05,8.47 13.05,8.47
             13.05,8.47 13.27,8.47 13.27,8.47
             13.27,8.47 13.55,8.28 13.55,8.28 Z
           M 0.50,8.33
           C 0.30,8.44 0.44,8.57 0.59,8.81
             0.62,8.86 0.68,8.97 0.74,9.00
             0.79,9.03 0.84,9.02 0.89,9.00
             0.89,9.00 0.50,8.33 0.50,8.33 Z
           M 0.78,8.33
           C 0.80,8.47 0.91,8.66 1.03,8.72
             1.02,8.54 0.96,8.41 0.78,8.33 Z
           M 11.12,8.36
           C 10.99,8.43 10.85,8.55 10.76,8.67
             10.97,8.66 11.08,8.57 11.12,8.36 Z
           M 9.53,8.56
           C 9.40,8.39 9.06,8.32 8.89,8.47
             8.89,8.47 9.53,8.56 9.53,8.56 Z
           M 1.23,8.42
           C 1.23,8.42 1.20,8.42 1.20,8.42
             1.20,8.42 1.23,8.45 1.23,8.45
             1.23,8.45 1.23,8.42 1.23,8.42 Z
           M 4.82,8.42
           C 4.82,8.42 4.79,8.42 4.79,8.42
             4.79,8.42 4.82,8.45 4.82,8.45
             4.82,8.45 4.82,8.42 4.82,8.42 Z
           M 1.03,8.45
           C 1.03,8.45 1.00,8.45 1.00,8.45
             1.00,8.45 1.03,8.47 1.03,8.47
             1.03,8.47 1.03,8.45 1.03,8.45 Z
           M 3.21,8.45
           C 3.19,8.57 3.29,8.56 3.37,8.53
             3.37,8.53 3.21,8.45 3.21,8.45 Z
           M 9.59,8.64
           C 9.59,8.64 8.84,8.50 8.84,8.50
             8.84,8.50 8.81,8.64 8.81,8.64
             8.81,8.64 9.50,8.72 9.50,8.72
             9.50,8.72 9.59,8.64 9.59,8.64 Z
           M 1.51,8.53
           C 1.51,8.53 1.48,8.53 1.48,8.53
             1.48,8.53 1.51,8.56 1.51,8.56
             1.51,8.56 1.51,8.53 1.51,8.53 Z
           M 4.88,8.75
           C 4.81,8.63 4.68,8.54 4.54,8.59
             4.54,8.59 4.88,8.75 4.88,8.75 Z
           M 4.91,8.86
           C 4.83,8.74 4.58,8.62 4.43,8.64
             4.55,8.73 4.76,8.86 4.91,8.86 Z
           M 13.49,8.64
           C 13.36,8.65 13.28,8.66 13.18,8.75
             13.31,8.73 13.39,8.73 13.49,8.64 Z
           M 3.21,8.78
           C 3.16,8.71 3.16,8.68 3.07,8.70
             3.07,8.70 3.21,8.78 3.21,8.78 Z
           M 11.51,8.67
           C 11.26,8.68 11.07,8.87 11.04,9.11
             11.22,8.99 11.39,8.85 11.51,8.67 Z
           M 3.34,9.06
           C 3.28,8.83 2.97,8.63 2.73,8.72
             2.73,8.72 3.34,9.06 3.34,9.06 Z
           M 9.51,8.78
           C 9.51,8.78 8.86,8.70 8.86,8.70
             8.89,8.74 8.89,8.76 8.93,8.79
             9.01,8.86 9.30,8.89 9.39,8.86
             9.45,8.84 9.47,8.82 9.51,8.78 Z
           M 11.23,8.70
           C 11.23,8.70 11.12,8.70 11.12,8.70
             11.12,8.70 11.09,8.84 11.09,8.84
             11.09,8.84 11.23,8.70 11.23,8.70 Z
           M 11.60,8.70
           C 11.42,8.82 11.16,9.03 11.07,9.23
             11.24,9.25 11.37,9.07 11.48,8.97
             11.53,8.93 11.60,8.87 11.61,8.81
             11.63,8.75 11.61,8.74 11.60,8.70 Z
           M 13.66,8.72
           C 13.66,8.72 13.16,8.81 13.16,8.81
             13.16,8.81 13.16,8.89 13.16,8.89
             13.30,8.88 13.55,8.81 13.66,8.72 Z
           M 4.49,8.72
           C 4.49,8.87 4.67,8.94 4.79,8.92
             4.79,8.92 4.49,8.72 4.49,8.72 Z
           M 3.37,9.14
           C 3.15,9.03 2.82,8.79 2.59,8.75
             2.59,8.75 2.56,8.89 2.56,8.89
             2.56,8.89 3.12,9.18 3.12,9.18
             3.24,9.24 3.31,9.29 3.37,9.14 Z
           M 9.84,8.72
           C 9.84,8.72 10.05,8.82 10.05,8.82
             10.05,8.82 10.37,8.75 10.37,8.75
             10.37,8.75 10.09,8.92 10.09,8.92
             10.40,9.07 10.47,9.34 10.09,9.45
             10.27,9.63 10.44,9.79 10.15,9.98
             10.10,10.01 10.06,10.02 10.01,10.03
             10.01,10.03 10.18,10.26 10.18,10.26
             10.24,10.35 10.29,10.55 10.14,10.58
             10.08,10.60 9.65,10.52 9.56,10.51
             9.56,10.24 9.59,10.16 9.87,10.06
             9.74,9.88 9.51,9.69 9.81,9.53
             9.86,9.50 9.90,9.49 9.95,9.48
             9.84,9.32 9.58,9.12 9.84,8.95
             9.89,8.92 9.93,8.91 9.98,8.89
             9.98,8.89 9.84,8.72 9.84,8.72 Z
           M 13.66,8.81
           C 13.66,8.81 13.63,8.81 13.63,8.81
             13.63,8.81 13.66,8.84 13.66,8.84
             13.66,8.84 13.66,8.81 13.66,8.81 Z
           M 13.63,8.84
           C 13.63,8.84 13.27,8.95 13.27,8.95
             13.41,8.98 13.53,8.94 13.63,8.84 Z
           M 9.25,8.92
           C 9.25,8.92 9.03,8.89 9.03,8.89
             9.12,8.99 9.15,9.00 9.25,8.92 Z
           M 11.65,8.89
           C 11.51,8.97 11.31,9.16 11.21,9.28
             11.43,9.27 11.62,9.12 11.65,8.89 Z
           M 4.57,8.92
           C 4.57,8.92 4.54,8.92 4.54,8.92
             4.54,8.92 4.57,8.95 4.57,8.95
             4.57,8.95 4.57,8.92 4.57,8.92 Z
           M 8.00,9.56
           C 7.96,9.39 7.79,9.06 7.64,8.98
             7.57,8.94 7.49,8.95 7.41,8.95
             7.41,8.95 6.97,8.95 6.97,8.95
             6.97,8.95 6.63,8.92 6.63,8.92
             6.63,8.92 5.97,8.92 5.97,8.92
             5.91,8.92 5.82,8.92 5.77,8.94
             5.63,9.00 5.44,9.35 5.41,9.51
             5.41,9.51 5.99,9.53 5.99,9.53
             5.99,9.53 7.00,9.53 7.00,9.53
             7.00,9.53 7.41,9.56 7.41,9.56
             7.41,9.56 8.00,9.56 8.00,9.56 Z
           M 2.59,8.95
           C 2.59,8.95 2.56,8.95 2.56,8.95
             2.56,8.95 2.59,8.98 2.59,8.98
             2.59,8.98 2.59,8.95 2.59,8.95 Z
           M 3.21,9.28
           C 3.21,9.28 2.59,8.98 2.59,8.98
             2.60,9.03 2.61,9.06 2.64,9.11
             2.75,9.26 3.04,9.41 3.21,9.28 Z
           M 10.20,9.06
           C 10.08,9.01 9.98,8.98 9.84,9.00
             9.93,9.06 10.09,9.10 10.20,9.06 Z
           M 4.60,9.20
           C 4.52,9.11 4.47,9.05 4.35,9.09
             4.35,9.09 4.60,9.20 4.60,9.20 Z
           M 4.63,9.37
           C 4.61,9.33 4.62,9.31 4.58,9.28
             4.54,9.22 4.31,9.10 4.24,9.11
             4.20,9.12 4.20,9.13 4.18,9.14
             4.18,9.14 4.63,9.37 4.63,9.37 Z
           M 10.31,9.23
           C 10.31,9.23 10.27,9.17 10.27,9.17
             10.27,9.17 9.76,9.09 9.76,9.09
             9.85,9.22 10.16,9.22 10.31,9.23 Z
           M 13.52,9.11
           C 13.52,9.11 13.49,9.11 13.49,9.11
             13.49,9.11 13.52,9.14 13.52,9.14
             13.52,9.14 13.52,9.11 13.52,9.11 Z
           M 11.60,9.14
           C 11.60,9.14 11.48,9.25 11.48,9.25
             11.48,9.25 11.60,9.14 11.60,9.14 Z
           M 13.74,9.17
           C 13.59,9.15 13.49,9.17 13.38,9.28
             13.38,9.28 13.74,9.17 13.74,9.17 Z
           M 4.15,9.17
           C 4.14,9.20 4.13,9.21 4.15,9.25
             4.17,9.31 4.42,9.44 4.49,9.45
             4.54,9.47 4.55,9.46 4.60,9.45
             4.60,9.45 4.60,9.39 4.60,9.39
             4.60,9.39 4.15,9.17 4.15,9.17 Z
           M 9.34,9.31
           C 9.21,9.16 8.99,9.11 8.84,9.25
             8.84,9.25 9.34,9.31 9.34,9.31 Z
           M 10.26,9.31
           C 10.26,9.31 9.84,9.23 9.84,9.23
             9.95,9.33 10.12,9.35 10.26,9.31 Z
           M 13.83,9.23
           C 13.83,9.23 13.37,9.37 13.37,9.37
             13.37,9.37 13.32,9.45 13.32,9.45
             13.32,9.45 13.78,9.30 13.78,9.30
             13.78,9.30 13.83,9.23 13.83,9.23 Z
           M 2.73,9.25
           C 2.73,9.25 2.70,9.25 2.70,9.25
             2.70,9.25 2.73,9.28 2.73,9.28
             2.73,9.28 2.73,9.25 2.73,9.25 Z
           M 12.01,9.25
           C 11.79,9.26 11.59,9.44 11.57,9.67
             11.57,9.67 12.01,9.25 12.01,9.25 Z
           M 2.76,9.28
           C 2.76,9.36 2.81,9.36 2.87,9.34
             2.87,9.34 2.76,9.28 2.76,9.28 Z
           M 9.45,9.51
           C 9.38,9.32 9.18,9.35 9.00,9.32
             8.94,9.30 8.85,9.28 8.78,9.30
             8.71,9.32 8.70,9.36 8.67,9.42
             8.67,9.42 9.45,9.51 9.45,9.51 Z
           M 11.74,9.28
           C 11.65,9.31 11.62,9.34 11.60,9.42
             11.60,9.42 11.74,9.28 11.74,9.28 Z
           M 12.18,9.31
           C 12.18,9.31 12.04,9.31 12.04,9.31
             12.04,9.31 11.57,9.76 11.57,9.76
             11.61,9.77 11.63,9.78 11.68,9.76
             11.82,9.73 12.12,9.44 12.18,9.31 Z
           M 13.38,9.28
           C 13.38,9.28 13.35,9.28 13.35,9.28
             13.35,9.28 13.38,9.31 13.38,9.31
             13.38,9.31 13.38,9.28 13.38,9.28 Z
           M 10.09,9.42
           C 10.05,9.37 10.04,9.37 9.98,9.39
             9.98,9.39 10.09,9.42 10.09,9.42 Z
           M 13.80,9.37
           C 13.80,9.37 13.41,9.51 13.41,9.51
             13.57,9.53 13.69,9.49 13.80,9.37 Z
           M 12.21,9.42
           C 12.07,9.50 11.89,9.65 11.79,9.78
             12.00,9.76 12.17,9.63 12.21,9.42 Z
           M 8.67,9.45
           C 8.62,9.60 8.71,9.62 8.84,9.64
             8.84,9.64 9.39,9.73 9.39,9.73
             9.39,9.73 9.45,9.56 9.45,9.56
             9.45,9.56 8.67,9.45 8.67,9.45 Z
           M 2.82,9.81
           C 2.77,9.59 2.55,9.47 2.34,9.56
             2.34,9.56 2.82,9.81 2.82,9.81 Z
           M 2.90,10.09
           C 2.87,9.86 2.69,9.82 2.51,9.71
             2.44,9.67 2.33,9.59 2.26,9.58
             2.19,9.58 2.15,9.60 2.09,9.62
             2.09,9.62 2.09,9.67 2.09,9.67
             2.09,9.67 2.90,10.09 2.90,10.09 Z
           M 10.20,9.64
           C 10.07,9.59 9.91,9.54 9.78,9.62
             9.91,9.63 10.08,9.69 10.20,9.64 Z
           M 8.06,9.70
           C 8.06,9.70 7.64,9.70 7.64,9.70
             7.64,9.70 7.30,9.67 7.30,9.67
             7.30,9.67 6.41,9.67 6.41,9.67
             6.41,9.67 5.99,9.64 5.99,9.64
             5.99,9.64 5.57,9.64 5.57,9.64
             5.57,9.64 5.37,9.67 5.37,9.67
             5.37,9.67 5.32,9.84 5.32,9.84
             5.32,9.84 5.35,10.31 5.35,10.31
             5.35,10.31 6.22,10.31 6.22,10.31
             6.22,10.31 6.66,10.34 6.66,10.34
             6.66,10.34 7.30,10.34 7.30,10.34
             7.30,10.34 7.75,10.34 7.75,10.34
             7.82,10.35 7.92,10.38 7.99,10.34
             8.12,10.25 8.07,9.84 8.06,9.70 Z
           M 12.15,9.64
           C 12.15,9.64 12.04,9.76 12.04,9.76
             12.04,9.76 12.15,9.64 12.15,9.64 Z
           M 10.26,9.73
           C 10.26,9.73 9.70,9.67 9.70,9.67
             9.70,9.67 9.74,9.73 9.74,9.73
             9.74,9.73 10.26,9.81 10.26,9.81
             10.26,9.81 10.26,9.73 10.26,9.73 Z
           M 2.06,9.70
           C 2.03,9.75 2.00,9.80 2.02,9.86
             2.06,9.94 2.39,10.11 2.48,10.16
             2.54,10.19 2.66,10.27 2.73,10.26
             2.80,10.25 2.83,10.20 2.87,10.15
             2.87,10.15 2.06,9.70 2.06,9.70 Z
           M 13.85,9.73
           C 13.71,9.70 13.65,9.71 13.55,9.81
             13.55,9.81 13.85,9.73 13.85,9.73 Z
           M 13.97,9.78
           C 13.80,9.80 13.56,9.82 13.46,9.98
             13.60,9.95 13.88,9.90 13.97,9.78 Z
           M 2.84,9.81
           C 2.84,9.81 2.82,9.81 2.82,9.81
             2.82,9.81 2.84,9.84 2.84,9.84
             2.84,9.84 2.84,9.81 2.84,9.81 Z
           M 10.20,9.87
           C 10.20,9.87 9.76,9.81 9.76,9.81
             9.87,9.92 10.07,9.96 10.20,9.87 Z
           M 14.02,9.90
           C 14.02,9.90 13.46,10.03 13.46,10.03
             13.49,10.06 13.50,10.08 13.55,10.10
             13.61,10.11 13.93,10.03 13.98,9.98
             14.01,9.95 14.01,9.93 14.02,9.90 Z
           M 10.01,9.95
           C 10.01,9.95 9.90,9.98 9.90,9.98
             9.90,9.98 10.01,9.95 10.01,9.95 Z
           M 9.95,10.09
           C 9.95,10.09 9.92,10.09 9.92,10.09
             9.92,10.09 9.95,10.12 9.95,10.12
             9.95,10.12 9.95,10.09 9.95,10.09 Z
           M 10.09,10.20
           C 9.97,10.16 9.87,10.12 9.76,10.20
             9.76,10.20 10.09,10.20 10.09,10.20 Z
           M 10.17,10.40
           C 10.16,10.36 10.16,10.35 10.13,10.32
             10.08,10.28 9.77,10.24 9.70,10.25
             9.65,10.27 9.65,10.28 9.62,10.31
             9.62,10.31 10.17,10.40 10.17,10.40 Z
           M 10.17,10.54
           C 10.17,10.54 10.13,10.45 10.13,10.45
             10.13,10.45 9.59,10.37 9.59,10.37
             9.59,10.37 9.66,10.45 9.66,10.45
             9.66,10.45 10.17,10.54 10.17,10.54 Z
           M 7.97,10.48
           C 7.97,10.48 7.05,10.48 7.05,10.48
             7.05,10.48 6.58,10.45 6.58,10.45
             6.58,10.45 5.41,10.45 5.41,10.45
             5.43,10.61 5.55,10.96 5.69,11.04
             5.75,11.07 5.84,11.07 5.91,11.07
             5.91,11.07 6.22,11.07 6.22,11.07
             6.22,11.07 6.52,11.09 6.52,11.09
             6.52,11.09 7.16,11.09 7.16,11.09
             7.25,11.09 7.62,11.11 7.66,11.09
             7.83,11.02 7.96,10.65 7.97,10.48 Z
           M 7.53,11.23
           C 7.53,11.23 5.83,11.21 5.83,11.21
             5.98,11.39 6.24,11.55 6.44,11.67
             6.50,11.71 6.62,11.79 6.69,11.80
             6.78,11.81 6.87,11.74 6.94,11.70
             7.11,11.59 7.43,11.40 7.53,11.23 Z
           M 7.83,12.93
           C 7.83,12.93 7.11,12.48 7.11,12.48
             7.03,12.43 6.83,12.30 6.75,12.29
             6.64,12.26 6.53,12.34 6.44,12.40
             6.27,12.49 5.77,12.79 5.66,12.91
             5.66,12.91 6.05,12.91 6.05,12.91
             6.05,12.91 6.38,12.93 6.38,12.93
             6.38,12.93 7.25,12.93 7.25,12.93
             7.43,12.94 7.66,13.00 7.83,12.93 Z
           M 8.50,13.69
           C 8.45,13.51 8.20,13.18 8.03,13.12
             7.90,13.07 7.33,13.07 7.16,13.07
             7.16,13.07 6.69,13.07 6.69,13.07
             6.69,13.07 6.24,13.05 6.24,13.05
             6.24,13.05 5.63,13.05 5.63,13.05
             5.57,13.05 5.49,13.04 5.44,13.06
             5.25,13.13 5.00,13.46 4.91,13.63
             4.91,13.63 5.32,13.66 5.32,13.66
             5.32,13.66 6.80,13.66 6.80,13.66
             6.80,13.66 7.28,13.69 7.28,13.69
             7.28,13.69 8.50,13.69 8.50,13.69 Z
           M 4.74,14.44
           C 4.74,14.44 5.66,14.44 5.66,14.44
             5.66,14.44 6.13,14.47 6.13,14.47
             6.13,14.47 7.61,14.47 7.61,14.47
             7.61,14.47 7.89,14.49 7.89,14.49
             7.89,14.49 8.45,14.49 8.45,14.49
             8.49,14.49 8.56,14.50 8.59,14.47
             8.70,14.39 8.66,13.96 8.59,13.87
             8.53,13.81 8.43,13.83 8.36,13.83
             8.36,13.83 7.72,13.83 7.72,13.83
             7.72,13.83 7.25,13.80 7.25,13.80
             7.25,13.80 5.77,13.80 5.77,13.80
             5.77,13.80 5.30,13.77 5.30,13.77
             5.21,13.77 4.90,13.75 4.84,13.80
             4.76,13.86 4.74,14.06 4.74,14.16
             4.74,14.16 4.74,14.44 4.74,14.44 Z
           M 8.59,14.63
           C 8.59,14.63 8.00,14.61 8.00,14.61
             8.00,14.61 6.61,14.61 6.61,14.61
             6.61,14.61 6.13,14.58 6.13,14.58
             6.13,14.58 4.79,14.58 4.79,14.58
             4.81,14.70 4.92,15.10 5.03,15.16
             5.08,15.20 5.18,15.19 5.24,15.19
             5.24,15.19 5.88,15.22 5.88,15.22
             5.88,15.22 7.16,15.22 7.16,15.22
             7.16,15.22 7.58,15.25 7.58,15.25
             7.58,15.25 8.11,15.25 8.11,15.25
             8.17,15.25 8.27,15.25 8.32,15.22
             8.43,15.15 8.54,14.76 8.59,14.63 Z" />
</svg>
